<?xml version="1.0" standalone="no"?>
<!DOCTYPE svg PUBLIC "-//W3C//DTD SVG 20010904//EN"
 "http://www.w3.org/TR/2001/REC-SVG-20010904/DTD/svg10.dtd">
<svg version="1.0" xmlns="http://www.w3.org/2000/svg"
 width="835.000000pt" height="829.000000pt" viewBox="0 0 835.000000 829.000000"
 preserveAspectRatio="xMidYMid meet">

<g transform="translate(0.000000,829.000000) scale(0.100000,-0.100000)"
fill="#000000" stroke="none">
<path d="M4184 7810 c-22 -5 -76 -20 -119 -34 -44 -14 -89 -26 -100 -26 -24 0
-134 -75 -195 -134 -25 -24 -50 -45 -57 -47 -27 -10 -103 -132 -141 -229 -58
-150 -61 -167 -63 -352 -2 -132 -5 -164 -14 -151 -18 24 -30 10 -50 -54 -20
-63 -21 -93 -6 -201 14 -98 21 -109 48 -80 17 18 24 45 32 133 16 158 57 389
70 393 13 4 54 92 69 145 8 28 7 44 -3 65 -16 31 -6 101 21 154 20 39 114 142
114 125 0 -8 3 -9 8 -1 4 5 16 10 27 11 33 1 178 34 214 49 18 8 44 14 57 14
12 0 26 5 29 10 3 6 33 10 66 10 43 0 61 4 65 15 5 12 11 11 34 -7 16 -11 26
-26 24 -33 -4 -9 7 -10 43 -5 32 5 53 4 62 -4 8 -6 22 -10 31 -8 20 3 60 -42
60 -67 0 -10 5 -7 13 8 11 23 17 25 94 25 75 1 105 -6 91 -20 -4 -3 -17 -1
-30 6 -22 11 -22 10 -4 -4 23 -18 32 -20 40 -7 3 5 23 -7 43 -26 21 -20 52
-49 70 -66 33 -31 57 -91 71 -177 9 -51 -7 -130 -25 -130 -7 0 -13 -11 -13
-24 0 -14 -4 -28 -10 -31 -12 -7 -5 -110 10 -149 14 -37 11 -280 -4 -396 -7
-52 -11 -98 -9 -102 9 -17 48 -7 74 18 36 34 49 13 14 -22 -16 -16 -23 -30
-17 -36 14 -14 51 23 67 67 8 22 14 32 15 22 0 -30 19 -9 32 36 6 23 18 51 25
62 16 25 17 111 1 121 -7 4 -27 7 -44 6 -33 -3 -56 15 -36 27 6 3 13 24 17 46
4 22 15 69 25 105 28 101 54 294 46 342 -9 59 -62 211 -92 267 -26 49 -88 111
-111 111 -7 0 -13 4 -13 9 0 14 -161 119 -215 139 -212 82 -337 104 -451 82z
m143 -192 c-3 -8 -6 -5 -6 6 -1 11 2 17 5 13 3 -3 4 -12 1 -19z"/>
<path d="M3855 7260 c-3 -5 -1 -10 4 -10 6 0 11 5 11 10 0 6 -2 10 -4 10 -3 0
-8 -4 -11 -10z"/>
<path d="M3696 7098 c5 -7 1 -9 -9 -5 -10 4 -18 -1 -22 -14 -4 -10 -11 -19
-16 -19 -6 0 -7 5 -3 12 4 7 3 8 -4 4 -6 -4 -9 -13 -5 -21 3 -8 0 -15 -7 -15
-6 0 -8 -5 -5 -10 4 -6 10 -8 15 -5 4 3 10 -2 14 -10 3 -8 2 -14 -2 -14 -21 3
-32 -3 -32 -17 0 -9 5 -12 11 -8 8 5 10 -1 7 -20 -4 -20 -2 -26 9 -22 11 5 11
2 1 -17 -7 -12 -11 -25 -10 -29 1 -4 -5 -26 -13 -49 -14 -38 -14 -45 0 -66 9
-12 12 -23 7 -23 -5 0 -9 -7 -9 -15 0 -8 9 -15 19 -15 10 0 18 -5 18 -11 0 -5
4 -8 8 -5 4 2 14 0 22 -5 12 -7 11 -10 -7 -15 -36 -10 -27 -22 14 -19 47 3
105 -12 120 -32 11 -14 68 -12 127 4 12 3 16 1 12 -6 -4 -6 -3 -11 3 -11 5 0
13 5 16 10 3 6 15 10 26 10 11 0 19 7 20 18 0 10 3 12 6 5 22 -56 85 106 83
217 0 14 -15 39 -35 60 -42 43 -121 67 -247 76 -82 5 -84 5 -122 -25 -21 -17
-44 -31 -50 -30 -7 0 -6 3 2 6 6 2 9 10 6 15 -4 7 -2 8 4 4 7 -4 13 -2 13 3 1
6 2 16 3 21 0 6 6 14 11 18 6 4 10 16 10 27 0 11 6 19 13 17 8 -1 11 2 7 8 -3
5 2 10 11 10 24 0 14 8 -19 14 -18 3 -25 1 -21 -6z m124 -303 c0 -9 -6 -12
-16 -8 -13 5 -13 7 -2 14 17 11 18 11 18 -6z"/>
<path d="M4274 6950 c-12 -4 -31 -27 -42 -51 -18 -35 -21 -58 -19 -129 3 -79
6 -90 31 -121 34 -40 62 -58 94 -59 13 0 35 -6 50 -13 15 -6 36 -12 47 -11 50
3 125 17 125 24 0 15 33 20 49 8 14 -12 14 -11 2 5 -11 14 -11 20 -1 32 7 8
19 15 26 15 30 0 92 42 98 66 8 32 -41 139 -82 177 -26 25 -43 30 -114 39 -45
5 -91 13 -100 19 -22 11 -135 11 -164 -1z m126 -220 c0 -31 -16 -41 -26 -15
-5 13 11 45 22 45 2 0 4 -13 4 -30z m140 -4 c0 -3 -4 -8 -10 -11 -5 -3 -10 -1
-10 4 0 6 5 11 10 11 6 0 10 -2 10 -4z"/>
<path d="M2099 6506 c-8 -9 1 -55 12 -62 10 -6 10 10 0 44 -3 13 -9 21 -12 18z"/>
<path d="M3476 6481 c-17 -19 -17 -21 -2 -27 22 -8 28 -1 24 26 l-3 22 -19
-21z"/>
<path d="M3868 6490 c-3 -9 -15 -14 -31 -12 -15 1 -27 -2 -27 -7 0 -5 -7 -12
-16 -15 -8 -3 -12 -2 -9 4 11 18 -6 11 -37 -15 -19 -16 -37 -23 -48 -20 -10 3
-21 1 -25 -5 -4 -6 -24 -10 -44 -9 -46 4 -61 -6 -61 -36 0 -13 -4 -27 -10 -30
-5 -3 -10 -11 -10 -16 0 -6 5 -7 12 -3 8 5 9 2 2 -12 -14 -32 -5 -174 18 -273
2 -10 -11 -17 -40 -23 -23 -5 -40 -13 -37 -18 3 -4 -3 -6 -14 -3 -10 3 -22 0
-25 -6 -4 -6 -22 -11 -41 -11 -19 0 -36 -4 -39 -9 -3 -5 -15 -7 -26 -4 -12 3
-22 -1 -26 -11 -3 -9 -10 -13 -15 -10 -6 3 -20 -1 -32 -9 -12 -8 -30 -13 -40
-11 -10 1 -23 -6 -30 -17 -6 -10 -20 -19 -29 -19 -10 0 -18 -4 -18 -9 0 -5
-13 -14 -30 -20 -16 -5 -30 -12 -30 -15 0 -3 6 -3 14 0 8 3 17 1 21 -5 3 -6
-1 -11 -9 -11 -9 0 -16 -6 -16 -12 0 -7 -5 -5 -11 5 -11 18 -29 14 -29 -6 0
-7 4 -6 11 3 9 13 10 13 6 0 -2 -8 -12 -14 -22 -13 -12 1 -14 -2 -7 -9 6 -6 8
-17 5 -26 -4 -10 -2 -13 5 -8 7 4 12 1 12 -8 0 -8 6 -17 13 -20 6 -2 3 -4 -8
-3 -11 2 -26 6 -32 10 -7 5 -17 5 -23 2 -17 -10 -11 7 6 20 15 10 15 12 1 12
-9 0 -18 -6 -21 -14 -8 -20 4 -43 24 -43 17 0 34 -36 24 -52 -8 -13 -24 -9
-24 5 0 8 -9 24 -20 37 -11 13 -20 27 -20 32 0 4 -4 8 -10 8 -5 0 -10 -5 -10
-10 0 -6 -10 -21 -21 -33 -12 -12 -30 -35 -40 -52 -10 -16 -19 -25 -19 -18 0
7 -7 10 -15 7 -18 -7 -20 -31 -3 -36 8 -3 7 -11 -6 -29 l-17 -24 7 28 c7 30 6
31 -31 17 -14 -5 -23 -15 -20 -20 5 -8 11 -7 21 1 12 10 13 9 8 -5 -4 -11 -14
-14 -33 -10 -20 4 -23 3 -11 -5 10 -7 11 -11 3 -11 -8 0 -13 -15 -13 -42 0
-39 1 -40 15 -22 8 10 15 14 15 8 0 -6 -7 -17 -15 -24 -8 -7 -15 -21 -15 -31
0 -26 -63 -51 -120 -47 l-45 3 -5 152 c-5 141 -7 154 -27 175 l-23 22 0 -167
c0 -148 -2 -167 -16 -167 -9 0 -31 -9 -48 -19 -22 -14 -51 -20 -101 -21 -92
-2 -89 -2 -75 15 9 11 16 13 24 5 12 -12 43 -13 49 -2 3 4 -6 8 -19 9 -55 6
-64 8 -64 15 0 4 5 8 11 8 8 0 8 5 -1 15 -7 8 -10 22 -6 30 3 9 2 13 -4 10
-12 -8 -47 48 -62 100 -10 38 -11 38 -18 15 -4 -14 -10 -92 -13 -174 -10 -213
-40 -386 -68 -386 -5 0 -9 26 -9 59 0 32 -2 87 -4 122 -4 50 -3 55 3 24 6 -28
9 2 10 103 1 111 -2 143 -11 139 -10 -3 -14 -52 -16 -188 -2 -158 -13 -294
-36 -464 l-6 -40 11 34 c6 19 19 46 30 59 l19 25 0 -24 c0 -13 -7 -37 -15 -53
-8 -15 -15 -37 -15 -47 0 -11 -4 -19 -8 -19 -5 0 -8 -10 -8 -21 1 -12 -5 -24
-11 -26 -7 -3 -13 3 -13 13 0 16 -2 15 -16 -4 -20 -29 -12 -39 20 -24 27 12
36 7 36 -22 0 -15 -3 -17 -12 -8 -7 7 -21 12 -32 12 -30 -1 87 -67 150 -85 57
-17 98 -53 92 -82 -3 -15 -11 -18 -58 -15 -69 4 -108 21 -112 47 -4 27 -22 26
-26 -1 -3 -18 6 -25 43 -40 39 -15 50 -25 71 -68 26 -53 29 -72 15 -80 -5 -3
-8 2 -7 12 1 14 -6 16 -33 14 -35 -4 -151 14 -186 29 -47 19 -62 19 -79 0 -10
-10 -33 -22 -53 -26 -20 -3 -52 -15 -72 -26 -20 -11 -55 -19 -80 -19 -31 0
-42 -3 -35 -10 18 -18 94 -13 212 14 116 26 159 26 291 -2 39 -8 68 -42 77
-89 5 -28 3 -33 -12 -34 -13 0 -9 -4 11 -11 43 -15 55 -27 55 -55 0 -35 -18
-63 -39 -63 -11 0 -21 -7 -25 -15 -3 -9 -18 -15 -40 -15 -19 0 -38 -4 -41 -10
-8 -12 -115 -13 -115 -1 0 5 23 12 50 16 83 11 64 25 -55 40 -41 5 -55 3 -75
-13 -26 -20 -69 -38 -83 -34 -5 1 -6 -2 -2 -8 3 -5 1 -10 -5 -10 -6 0 -9 -4
-5 -9 10 -17 -12 -21 -26 -5 -11 14 -10 18 6 31 22 16 20 16 -40 -11 -26 -12
-45 -15 -55 -9 -20 12 -109 0 -119 -16 -6 -10 -10 -9 -14 3 -9 23 -37 20 -37
-4 0 -12 9 -30 20 -42 10 -12 17 -25 14 -30 -3 -5 -2 -7 3 -6 13 3 66 -28 87
-51 11 -12 14 -21 8 -21 -7 0 -12 -8 -12 -18 0 -11 -9 -27 -20 -37 -11 -10
-17 -22 -14 -26 3 -5 -2 -9 -10 -9 -8 0 -18 9 -21 20 -3 11 -11 20 -16 20 -6
0 -7 5 -4 10 11 18 -34 98 -53 96 -42 -7 -90 46 -59 66 8 5 7 8 -5 8 -10 0
-18 -6 -18 -13 0 -8 -9 -24 -20 -37 -21 -25 -35 -66 -45 -142 -4 -26 -21 -69
-37 -95 -67 -105 -89 -244 -55 -349 9 -27 21 -76 27 -109 27 -159 115 -307
220 -373 41 -26 61 -45 65 -64 4 -15 10 -30 14 -32 4 -3 50 6 102 19 101 25
262 55 293 55 20 0 19 -7 -5 -67 -11 -27 -9 -49 14 -160 68 -329 81 -401 81
-448 0 -27 -19 -122 -42 -210 -41 -155 -82 -362 -82 -412 0 -13 -6 -26 -13
-28 -8 -4 -12 -29 -12 -75 0 -63 3 -72 27 -95 30 -28 44 -31 52 -12 3 6 3 2 1
-9 -5 -18 12 -35 97 -100 184 -141 331 -242 478 -326 88 -51 308 -158 366
-178 32 -12 68 -26 78 -32 36 -20 141 -55 152 -51 6 2 17 -3 24 -12 7 -8 17
-15 22 -15 14 0 38 27 31 34 -4 3 2 6 12 6 17 0 17 -1 0 -20 -20 -23 -16 -31
17 -35 13 -2 39 -10 58 -18 19 -8 77 -25 129 -37 80 -20 97 -21 115 -10 19 12
20 12 7 -3 -12 -15 -11 -17 7 -17 11 0 28 -3 38 -7 12 -4 15 -3 10 5 -4 7 -3
12 3 12 5 0 13 -5 16 -11 5 -7 14 -4 26 7 19 17 27 6 9 -12 -13 -13 122 -39
286 -56 129 -13 553 -16 572 -4 7 4 57 9 110 11 173 5 534 79 747 152 110 38
148 56 99 47 -25 -5 -36 -1 -53 17 -27 29 -26 35 2 44 19 6 15 9 -24 18 -46
10 -46 10 -48 53 0 24 0 44 2 44 26 0 124 25 128 32 4 6 1 25 -7 43 -7 19 -15
47 -16 64 -1 17 -6 31 -9 31 -4 0 -5 15 -2 34 3 19 1 36 -6 40 -15 10 -14 22
5 40 8 9 11 16 6 16 -13 0 -37 61 -33 85 1 11 8 25 13 30 8 7 9 5 5 -7 -7 -21
8 -25 16 -4 3 7 0 19 -6 25 -8 8 -8 11 0 11 12 0 6 37 -9 57 -5 7 -5 14 1 17
5 3 11 1 13 -6 3 -7 7 -5 11 6 4 9 3 15 -2 11 -5 -3 -13 0 -17 6 -5 9 0 10 17
6 13 -4 32 -7 42 -7 10 0 15 -4 12 -10 -3 -6 1 -7 9 -4 11 4 16 0 16 -10 0 -9
4 -16 8 -16 12 0 53 -36 47 -41 -2 -3 5 -6 16 -6 27 -2 47 -30 43 -59 -1 -13
2 -26 6 -29 5 -3 7 -12 4 -20 -4 -8 -10 -13 -14 -10 -5 3 -2 -8 6 -25 9 -16
13 -34 9 -40 -15 -24 -13 -55 5 -78 11 -14 20 -37 19 -51 0 -14 1 -35 3 -46 2
-11 -2 -19 -9 -18 -7 2 -10 -7 -7 -21 3 -16 -2 -26 -13 -31 -16 -7 -15 -9 7
-15 14 -5 45 -8 70 -9 l45 -1 0 82 c0 128 14 266 31 306 15 36 18 69 29 281 5
108 12 127 48 134 16 3 14 5 -8 6 l-30 1 0 220 0 219 25 -6 c24 -6 24 -6 7 11
-9 10 -17 18 -17 19 0 1 16 3 35 4 20 1 33 -1 31 -5 -4 -6 255 -7 294 -2 20 3
-88 21 -119 21 -14 -1 -28 5 -33 11 -5 8 -8 9 -8 2 0 -16 -52 -5 -67 14 -11
14 -13 14 -13 1 0 -12 -8 -14 -30 -11 -20 3 -30 10 -30 22 0 14 10 19 45 22
25 2 46 -1 48 -7 2 -6 10 -5 19 3 12 10 17 10 27 -1 12 -15 38 -16 60 -3 7 5
16 5 20 0 9 -13 31 -16 31 -5 0 18 61 -21 70 -44 7 -18 16 -23 47 -23 20 0 39
-5 41 -11 8 -25 34 4 37 41 0 3 3 10 8 14 13 13 7 22 -21 32 -19 7 -35 6 -47
-1 -14 -7 -20 -7 -23 1 -2 7 -19 12 -38 12 -24 0 -34 5 -34 15 0 8 -4 15 -10
15 -5 0 -10 -7 -10 -15 0 -8 -6 -12 -12 -10 -7 2 -38 6 -68 9 -30 3 -56 5 -57
6 -2 0 -3 14 -3 31 0 29 1 30 33 24 17 -4 34 -10 37 -14 10 -13 83 -12 91 1 7
10 9 10 9 1 0 -7 7 -13 15 -13 8 0 15 -8 16 -17 0 -15 2 -15 7 -3 8 18 48 25
56 11 4 -6 14 -7 23 -4 9 4 21 -1 29 -11 11 -16 13 -16 19 3 3 12 3 25 0 31
-3 5 -1 10 5 10 8 0 10 -13 5 -40 l-7 -40 39 1 c35 0 36 1 15 11 -13 7 -26 26
-32 48 -10 38 -11 38 -101 60 -49 12 -92 20 -95 17 -3 -3 29 -13 70 -23 42
-10 76 -22 76 -27 0 -5 -8 -6 -17 -2 -10 4 -52 11 -93 16 -41 6 -86 12 -100
15 -14 3 -35 6 -47 7 -13 1 -23 5 -23 10 0 5 -8 3 -17 -4 -9 -8 -14 -9 -10 -2
4 6 -4 20 -19 32 -33 26 -31 26 68 1 44 -12 85 -19 91 -17 5 1 -30 13 -79 25
-225 57 -244 64 -244 96 0 13 7 41 16 62 22 53 13 108 -24 148 -17 17 -42 48
-56 70 l-26 38 25 30 c14 16 28 42 31 56 3 15 12 46 20 70 18 56 18 72 -3 73
-15 0 -16 1 -3 7 11 5 16 22 17 52 1 29 0 37 -5 23 l-7 -22 -27 24 c-16 13
-28 29 -28 35 0 6 -4 8 -10 5 -17 -10 -130 56 -135 79 -18 79 -44 311 -37 318
6 6 44 25 87 43 42 19 86 42 97 52 19 17 21 17 39 -6 15 -18 19 -20 19 -7 0 9
-7 27 -15 39 -12 20 -18 49 -40 202 -3 22 -5 57 -5 78 1 21 -3 36 -8 33 -5 -3
-7 -17 -4 -31 3 -16 0 -25 -8 -25 -7 0 -10 7 -6 16 4 11 -1 18 -14 21 -11 3
-20 10 -20 15 0 6 7 7 16 4 8 -3 13 -2 10 3 -3 5 1 11 9 15 8 3 15 11 15 18 0
9 -3 8 -10 -2 -5 -8 -10 -10 -10 -5 0 6 -5 3 -10 -5 -7 -12 -12 -12 -22 -2 -9
9 -9 12 0 12 6 0 9 7 5 16 -3 9 0 20 8 25 11 8 10 10 -6 8 -39 -3 -39 3 0 22
22 10 31 18 20 16 -11 -1 -20 4 -20 11 0 7 -7 17 -15 22 -13 8 -13 10 2 10 9
0 20 4 23 10 4 6 -1 7 -11 3 -12 -4 -15 -2 -12 8 3 8 11 13 17 11 7 -1 10 2 6
8 -3 6 -10 8 -15 5 -5 -3 -12 4 -15 16 -6 19 -8 19 -19 3 -12 -16 -13 -16 -19
0 -4 9 -3 15 2 12 14 -9 21 20 8 34 -9 10 -9 11 1 6 6 -4 12 -2 12 3 0 6 -8
11 -17 12 -14 0 -13 2 5 9 12 5 21 17 21 27 -1 17 -2 17 -6 1 -5 -21 -23 -24
-23 -4 0 10 -7 12 -22 8 -22 -5 -22 -5 -5 12 24 24 17 39 -24 53 -19 7 -29 12
-22 12 7 1 10 7 7 15 -3 9 5 15 25 19 22 5 31 12 31 27 0 11 -5 20 -11 20 -6
0 -9 -7 -6 -15 4 -8 1 -17 -5 -21 -7 -4 -8 -3 -4 4 5 8 -1 12 -16 13 -17 1
-18 3 -5 6 9 2 17 11 17 19 0 8 5 12 10 9 6 -3 10 1 10 9 0 15 -20 34 -20 19
0 -4 -19 -24 -42 -43 -23 -19 -39 -29 -34 -22 7 12 -38 38 -57 33 -5 -1 -6 3
-3 8 4 5 0 12 -6 14 -9 4 -7 6 3 6 9 1 22 -6 29 -14 13 -16 36 -20 43 -7 2 4
2 1 0 -7 -3 -11 -1 -12 12 -1 13 11 13 15 3 21 -10 6 -8 12 7 23 12 9 15 15 7
16 -8 0 -10 5 -6 12 5 8 2 9 -11 4 -15 -5 -16 -4 -5 9 10 12 10 15 -1 15 -9 0
-10 3 -4 8 6 4 11 18 12 32 2 17 0 20 -5 10 -4 -8 -23 -17 -42 -19 -41 -4 -50
-8 -49 -24 0 -9 2 -9 6 1 2 6 12 12 21 12 15 0 15 -2 2 -10 -12 -8 -10 -10 8
-10 13 0 21 4 18 9 -3 5 1 11 9 15 19 7 19 -8 0 -27 -8 -8 -11 -18 -7 -23 4
-5 -1 -2 -11 5 -15 12 -17 12 -11 -3 5 -12 2 -15 -10 -10 -9 3 -13 11 -9 17 3
5 1 7 -4 4 -6 -4 -16 0 -23 8 -10 12 -10 18 1 31 10 13 10 17 -2 25 -11 7 -9
9 9 9 13 0 20 -4 17 -10 -4 -6 5 -10 20 -10 17 0 24 4 19 11 -3 6 -1 15 6 19
9 6 6 10 -9 15 -13 4 -20 12 -17 20 3 8 0 16 -7 19 -7 3 -6 5 4 5 8 1 20 -4
26 -10 9 -9 11 -7 9 6 -1 10 -10 23 -19 30 -20 14 -23 30 -4 19 8 -5 8 -2 -2
9 -15 18 -26 23 -16 7 3 -5 2 -10 -2 -10 -5 0 -14 9 -21 20 -14 23 -34 18 -25
-7 4 -11 2 -14 -8 -11 -8 3 -14 15 -13 27 0 11 -5 21 -13 21 -30 0 5 -56 40
-63 22 -4 22 -4 -2 -6 -21 -1 -23 -5 -19 -41 3 -32 1 -39 -11 -35 -11 4 -9 0
4 -15 16 -18 16 -20 2 -20 -10 0 -17 4 -17 10 0 5 -7 7 -15 4 -10 -4 -15 0
-15 11 0 9 5 13 10 10 6 -3 10 -1 10 4 0 15 -13 14 -29 -1 -10 -11 -11 -9 -5
6 6 16 4 18 -16 13 -15 -4 -30 -1 -40 8 -16 15 -80 33 -67 19 4 -4 17 -9 28
-11 20 -3 49 -25 49 -37 0 -3 -8 -6 -17 -6 -15 0 -16 -2 -3 -10 10 -6 11 -10
3 -10 -7 0 -13 -8 -14 -17 0 -16 -1 -16 -7 -2 -13 30 -67 68 -83 58 -8 -5 -17
-9 -21 -9 -12 0 -10 34 2 46 8 8 6 15 -6 25 -16 13 -17 12 -10 -6 5 -14 4 -17
-3 -10 -6 6 -12 50 -15 98 -4 76 -3 87 10 76 9 -7 14 -8 14 -1 0 6 -9 14 -20
17 -14 4 -20 15 -20 33 1 40 -17 117 -39 165 -29 64 -144 167 -239 214 -30 15
-57 36 -62 48 -17 44 -156 145 -180 130 -6 -3 -10 -13 -10 -22 0 -36 -45 -155
-62 -164 -12 -7 -18 -6 -18 2 0 6 -8 9 -19 6 -14 -3 -18 -1 -14 9 4 10 0 12
-11 8 -16 -6 -16 -8 0 -25 19 -21 29 -25 18 -7 -5 7 -3 8 5 4 7 -5 10 -15 7
-23 -4 -9 -2 -11 7 -6 20 12 38 12 34 0 -2 -7 -21 -14 -43 -17 -31 -4 -35 -7
-20 -13 13 -5 16 -11 9 -18 -12 -12 -63 -2 -63 12 0 5 -11 2 -25 -7 -14 -9
-25 -12 -25 -7 0 15 23 33 42 33 10 0 18 6 19 13 0 6 4 3 9 -8 7 -16 9 -17 9
-3 1 9 4 18 9 21 4 2 1 2 -6 0 -10 -2 -13 6 -10 27 2 19 -3 34 -12 40 -13 8
-12 10 3 10 9 0 17 -4 17 -10 0 -20 20 -10 34 18 l15 27 -6 -32 c-4 -26 -2
-33 10 -33 11 0 14 6 11 15 -4 8 0 23 7 33 7 9 10 14 5 10 -11 -10 -73 38 -73
56 0 9 4 13 9 10 4 -3 8 -1 8 4 0 5 -10 14 -22 20 -19 9 -20 11 -5 11 10 1 25
8 33 16 14 13 13 16 -8 24 -13 5 -27 6 -33 3 -5 -3 -4 1 2 8 17 19 69 1 67
-23 -1 -9 2 -17 7 -17 5 0 9 6 9 14 0 8 10 16 23 18 14 2 20 9 18 18 -2 8 -6
43 -7 77 -4 73 -18 104 -70 156 l-38 38 -12 -38 -12 -38 3 45 c2 25 4 45 5 45
1 0 4 11 6 25 3 14 24 54 48 90 41 62 68 140 48 140 -6 0 -7 14 -2 35 4 19 5
35 1 35 -3 0 -6 25 -5 56 0 30 -4 57 -8 60 -4 3 -8 -2 -8 -12 0 -13 -3 -14
-15 -4 -8 7 -15 19 -15 28 0 8 -3 13 -6 10 -6 -7 -93 20 -111 34 -6 5 -25 10
-42 10 -17 1 -38 9 -47 20 -10 10 -22 18 -27 18 -6 0 -21 10 -34 22 -20 19
-26 20 -48 8 -30 -16 -31 -24 -4 -51 15 -15 23 -38 26 -75 5 -53 4 -54 -22
-54 -18 0 -24 -4 -19 -12 6 -9 3 -9 -9 0 -10 9 -27 11 -47 7 -26 -6 -31 -3
-40 19 -10 27 -5 50 15 76 32 41 64 109 54 115 -6 4 -13 -2 -16 -14 -7 -29
-39 -36 -163 -36 -81 0 -112 4 -135 18 -16 9 -42 21 -57 27 -21 7 -28 16 -28
35 0 18 -5 25 -19 25 -11 0 -21 6 -23 13 -3 8 -6 8 -10 -3z m38 -77 c20 -26
17 -35 -8 -27 -29 9 -41 26 -25 36 17 11 18 10 33 -9z m-36 -48 c0 -9 -6 -12
-15 -9 -8 4 -15 10 -15 15 0 5 7 9 15 9 8 0 15 -7 15 -15z m66 -212 c-7 -7
-26 7 -26 19 0 6 6 6 15 -2 9 -7 13 -15 11 -17z m55 14 c7 -7 25 -11 39 -9 18
2 29 -1 33 -11 5 -13 -4 -15 -49 -15 -50 1 -54 2 -54 24 0 27 13 31 31 11z
m229 -11 c0 -30 -41 -49 -55 -26 -3 6 1 10 9 10 9 0 16 5 16 10 0 6 7 10 15
10 8 0 15 -2 15 -4z m-75 -26 c-3 -5 -12 -10 -18 -10 -7 0 -6 4 3 10 19 12 23
12 15 0z m-37 -45 c66 -8 78 -19 36 -35 -19 -7 -31 -7 -40 1 -8 6 -21 9 -29 5
-8 -3 -15 -1 -15 5 0 5 -6 9 -12 8 -22 -3 -98 13 -94 20 5 8 73 7 154 -4z
m158 -30 c-3 -8 -1 -15 4 -15 5 0 11 8 13 18 3 12 5 13 6 2 1 -25 -12 -37 -51
-43 -47 -7 -52 14 -10 36 36 20 45 20 38 2z m-383 -131 c19 -17 34 -23 47 -19
11 4 20 2 20 -4 0 -6 7 -11 15 -11 8 0 15 -9 15 -20 0 -21 -33 -29 -45 -10 -3
5 -12 7 -21 3 -13 -5 -12 -7 2 -18 15 -10 12 -11 -14 -7 -22 3 -36 13 -46 33
-10 21 -11 29 -3 29 7 0 6 4 -3 9 -8 6 -18 7 -23 4 -5 -3 -3 4 5 16 16 26 17
26 51 -5z m425 -13 c11 -7 11 -11 -2 -23 -17 -18 -11 -29 10 -21 8 3 14 0 14
-6 0 -6 -12 -14 -27 -17 -16 -4 -41 -13 -57 -21 -26 -14 -28 -13 -23 1 4 9 2
16 -3 16 -6 0 -10 -7 -10 -16 0 -12 -4 -14 -12 -7 -7 6 -25 13 -40 17 -44 10
-34 34 17 42 25 3 45 11 45 16 0 6 18 8 40 6 38 -3 54 5 28 15 -7 3 -8 6 -3 6
6 0 16 -3 23 -8z m-1158 -277 c0 -8 -4 -12 -10 -9 -5 3 -10 10 -10 16 0 5 5 9
10 9 6 0 10 -7 10 -16z m1546 -29 c1 -16 -2 -22 -10 -18 -6 4 -5 -1 2 -10 8
-9 11 -21 7 -28 -10 -16 -25 9 -25 42 0 43 24 56 26 14z m49 -55 c0 -7 -7 -15
-15 -17 -13 -4 -13 -3 0 6 13 10 13 12 0 22 -13 9 -13 10 0 6 8 -2 15 -10 15
-17z m-89 -157 c-3 -7 -1 -13 4 -13 6 0 10 -5 10 -10 0 -6 -11 -3 -24 7 -13
10 -23 27 -22 40 1 20 2 20 19 5 10 -8 15 -22 13 -29z m-36 -84 c11 -26 11
-32 -1 -40 -19 -12 -39 -11 -39 2 0 5 3 8 8 6 4 -3 13 1 20 9 10 10 10 14 1
14 -7 0 -9 3 -6 7 4 3 2 12 -4 20 -7 8 -8 13 -1 13 5 0 15 -14 22 -31z m-972
-14 c19 -16 38 -30 43 -30 5 0 9 -4 8 -8 0 -5 15 -17 33 -27 24 -13 37 -15 46
-7 9 7 16 7 20 0 11 -16 132 -54 152 -48 10 3 21 1 25 -5 4 -6 13 -7 23 -2 9
5 24 8 32 7 8 -1 25 -3 38 -3 15 -2 22 -8 22 -22 0 -18 5 -20 43 -14 45 6 144
27 217 47 25 6 59 11 77 10 18 -1 34 4 36 12 9 22 56 6 63 -22 8 -29 -57 -182
-88 -210 -11 -10 -31 -35 -44 -55 l-24 -38 -111 0 c-97 0 -110 -2 -105 -16 3
-9 6 -21 6 -27 0 -7 13 -18 29 -25 42 -18 38 -50 -5 -46 -50 4 -147 25 -169
37 -11 6 -25 12 -32 13 -45 8 -79 26 -80 44 -1 11 3 18 8 14 19 -11 69 -15 69
-5 0 6 -6 8 -14 5 -20 -8 -28 12 -11 26 13 10 24 10 56 1 42 -13 60 -8 42 10
-5 5 -34 20 -64 32 -99 41 -225 133 -302 221 -40 46 -82 102 -95 125 l-23 41
23 -3 c12 -1 38 -15 56 -32z m-1222 -34 c-16 -16 -25 -34 -22 -39 3 -6 -5 -19
-19 -30 -14 -11 -25 -28 -25 -37 0 -9 -9 -19 -20 -22 -11 -3 -20 -9 -20 -15 0
-5 -9 -18 -20 -30 -13 -15 -20 -17 -20 -8 0 21 21 131 33 173 l10 37 65 0 66
0 -28 -29z m-165 -44 c-8 -8 -11 -5 -11 9 0 27 14 41 18 19 2 -9 -1 -22 -7
-28z m2469 13 c0 -5 -8 -10 -17 -10 -15 0 -16 2 -3 10 19 12 20 12 20 0z m-73
-33 c3 -6 1 -7 -5 -3 -7 4 -12 3 -12 -3 0 -5 -11 -8 -24 -5 -14 2 -28 0 -31
-6 -8 -13 -25 -13 -25 0 0 5 12 16 27 23 27 15 59 12 70 -6z m31 -15 c-24 -5
-23 -18 2 -25 11 -3 20 0 20 6 0 6 3 7 6 4 11 -10 -18 -38 -33 -33 -9 4 -13 0
-11 -12 2 -13 -5 -18 -36 -20 -25 -2 -36 0 -31 7 3 7 -3 11 -15 11 -15 0 -20
-5 -18 -17 3 -12 12 -17 26 -16 14 2 21 -1 17 -7 -3 -6 -1 -10 4 -10 6 0 11 6
12 13 0 9 2 9 6 -1 7 -18 47 -38 41 -21 -5 14 19 45 28 37 2 -3 -1 -19 -7 -36
l-11 -31 -35 17 c-33 16 -35 15 -44 -1 -6 -10 -14 -15 -20 -12 -5 4 -9 0 -9
-9 0 -8 6 -17 13 -19 9 -4 8 -8 -3 -16 -13 -9 -13 -11 3 -11 9 0 17 -4 17 -10
0 -6 -9 -6 -26 0 -35 14 -42 12 -20 -5 11 -8 15 -15 8 -15 -6 0 -9 -6 -6 -14
3 -9 -3 -17 -16 -21 -16 -5 -19 -10 -11 -18 19 -19 12 -34 -14 -29 -19 3 -25
0 -25 -12 0 -10 -4 -15 -10 -11 -5 3 -7 13 -4 23 5 15 5 15 -6 -1 -6 -9 -8
-22 -4 -29 4 -7 3 -8 -4 -4 -7 4 -12 2 -12 -3 0 -6 -16 -11 -35 -11 -24 0 -35
5 -35 15 0 8 4 15 9 15 5 0 14 12 20 28 21 50 36 67 61 68 14 1 29 2 34 3 4 0
1 11 -7 24 -18 28 -8 51 17 41 14 -5 15 -9 4 -15 -9 -6 -4 -9 16 -9 23 0 26 3
17 13 -6 8 -8 16 -5 20 3 3 1 15 -6 26 -6 12 -7 21 -2 21 5 0 8 16 7 36 -2 46
18 67 61 62 22 -3 36 1 45 13 7 10 19 15 28 11 14 -6 14 -7 -1 -10z m27 -62
c-3 -5 -12 -10 -18 -10 -7 0 -6 4 3 10 19 12 23 12 15 0z m-1572 -14 c4 -10 0
-14 -12 -13 -10 0 -18 7 -18 14 0 18 23 17 30 -1z m194 -43 c16 -6 15 -8 -7
-13 -14 -3 -30 -17 -37 -30 -10 -20 -13 -21 -13 -7 0 23 18 57 30 57 4 0 17
-3 27 -7z m1184 -23 c6 0 7 6 4 13 -4 6 1 3 9 -7 20 -24 16 -29 -17 -21 -18 5
-24 11 -19 23 3 10 7 12 10 4 2 -7 8 -12 13 -12z m-1329 -12 c-7 -7 -12 -8
-12 -2 0 6 3 14 7 17 3 4 9 5 12 2 2 -3 -1 -11 -7 -17z m33 12 c3 -5 1 -10 -4
-10 -6 0 -11 5 -11 10 0 6 2 10 4 10 3 0 8 -4 11 -10z m1430 -10 c3 -5 -1 -10
-10 -10 -9 0 -13 5 -10 10 3 6 8 10 10 10 2 0 7 -4 10 -10z m5 -60 c0 -5 -4
-10 -9 -10 -6 0 -13 5 -16 10 -3 6 1 10 9 10 9 0 16 -4 16 -10z m-1392 -21
c-19 -13 -28 -11 -28 5 0 9 7 12 21 9 16 -4 17 -8 7 -14z m-908 1 c0 -5 -8
-10 -17 -10 -15 0 -16 2 -3 10 19 12 20 12 20 0z m-200 -24 c0 -2 -7 -9 -15
-16 -12 -10 -15 -10 -15 4 0 9 7 16 15 16 8 0 15 -2 15 -4z m860 -36 c0 -5 -2
-10 -4 -10 -3 0 -8 5 -11 10 -3 6 -1 10 4 10 6 0 11 -4 11 -10z m1700 0 c0 -5
-8 -10 -17 -10 -15 0 -16 -2 -3 -10 11 -7 11 -10 2 -10 -7 0 -10 -5 -6 -12 4
-6 3 -8 -3 -5 -6 4 -15 -5 -21 -18 -7 -14 -16 -25 -22 -25 -12 0 -11 2 27 63
22 35 43 49 43 27z m-105 -28 c-3 -3 -11 0 -18 7 -9 10 -8 11 6 5 10 -3 15 -9
12 -12z m-1741 -28 c3 -8 2 -12 -4 -9 -6 3 -10 10 -10 16 0 14 7 11 14 -7z
m139 9 c-7 -2 -19 -2 -25 0 -7 3 -2 5 12 5 14 0 19 -2 13 -5z m847 -3 c0 -5 6
-10 14 -10 8 0 21 -6 28 -13 7 -8 26 -17 41 -21 15 -3 27 -12 27 -19 0 -7 15
-21 33 -32 17 -10 41 -27 52 -38 11 -10 34 -25 51 -33 40 -19 131 -114 131
-136 0 -9 -7 -20 -16 -23 -11 -4 -12 -8 -4 -13 7 -5 9 -13 4 -21 -7 -10 -17
-8 -47 12 -44 28 -94 80 -94 96 0 6 -4 11 -9 11 -17 0 -112 93 -157 153 -23
32 -46 57 -49 57 -15 -2 -37 19 -31 29 9 14 26 15 26 1z m457 -16 c-3 -3 -12
-4 -19 -1 -8 3 -5 6 6 6 11 1 17 -2 13 -5z m108 -17 c4 5 6 1 3 -7 -3 -8 -12
-14 -21 -14 -10 1 -14 -3 -10 -9 4 -7 0 -8 -11 -4 -10 4 -26 3 -36 -3 -25 -13
-21 13 6 38 16 16 22 17 40 5 11 -7 24 -10 29 -6z m-655 -11 c0 5 6 -2 13 -16
7 -14 20 -24 28 -22 15 2 82 -62 73 -70 -2 -2 12 -20 31 -38 19 -19 35 -39 35
-45 0 -7 11 -18 25 -25 14 -7 25 -20 25 -27 0 -15 80 -122 93 -122 12 -1 47
-40 47 -53 0 -7 7 -22 15 -32 8 -11 15 -28 15 -38 0 -15 3 -17 19 -8 13 7 22
7 26 0 3 -5 -1 -10 -10 -10 -19 0 -50 -28 -41 -37 3 -3 -3 -13 -14 -20 -11 -8
-18 -18 -15 -23 3 -4 -8 -13 -24 -18 -29 -10 -56 -2 -56 18 0 6 -5 14 -12 18
-7 4 -17 19 -23 32 l-10 25 3 -28 c4 -24 2 -27 -17 -21 -18 5 -18 4 4 -12 14
-11 28 -18 33 -16 7 2 12 -31 7 -53 -1 -5 5 -14 13 -20 7 -5 17 -22 20 -37 6
-23 4 -25 -13 -21 -11 3 -20 0 -20 -6 0 -6 6 -11 13 -11 7 0 22 -7 33 -15 16
-12 17 -16 5 -24 -10 -6 -19 -4 -28 5 -8 8 -24 13 -36 13 -20 -1 -21 -2 -2 -6
44 -11 56 -33 53 -100 -2 -35 0 -63 4 -63 5 0 8 16 8 35 0 47 23 101 49 115
18 9 21 8 21 -7 0 -10 -7 -27 -15 -37 -20 -26 -20 -85 0 -92 8 -4 15 -15 15
-26 0 -16 -4 -19 -22 -14 -49 14 -62 15 -75 5 -9 -8 -25 -6 -60 11 -27 12 -55
28 -63 34 -8 7 -28 12 -45 12 -21 -1 -35 5 -47 23 -20 30 -14 45 13 30 34 -18
38 -5 7 23 l-29 27 -9 -24 c-5 -13 -14 -26 -20 -30 -8 -5 -8 -10 0 -20 7 -8 9
-18 6 -24 -4 -5 3 -12 14 -16 11 -3 20 -12 20 -20 0 -8 9 -17 20 -20 22 -7 26
-20 10 -30 -8 -5 -7 -11 1 -21 6 -7 15 -11 20 -8 5 3 13 -5 18 -18 6 -13 10
-17 10 -10 1 6 8 12 16 12 13 0 14 -4 4 -21 -9 -17 -7 -30 7 -62 l18 -40 21
64 c16 52 24 65 43 67 50 7 69 -45 33 -89 -17 -20 -23 -22 -39 -12 -18 10 -20
9 -25 -15 -4 -18 2 -35 18 -54 13 -15 26 -37 30 -48 3 -11 11 -20 16 -20 6 0
8 -4 5 -9 -3 -5 -16 -7 -28 -3 -32 8 -99 48 -92 54 3 3 -11 11 -32 18 -20 7
-53 27 -73 45 -20 17 -44 35 -53 38 -10 4 -18 15 -18 26 0 14 -5 19 -20 16
-11 -2 -19 1 -17 7 1 6 -14 15 -33 19 -18 4 -40 15 -46 24 -7 9 -18 14 -23 10
-6 -3 -14 1 -17 10 -5 11 -9 13 -14 5 -12 -19 -40 1 -40 29 l-1 26 -18 -22
c-23 -27 -31 -29 -31 -7 0 14 -3 14 -15 4 -13 -11 -15 -8 -15 16 0 25 -1 26
-13 10 -7 -10 -22 -17 -33 -14 -24 4 -30 41 -9 58 13 11 19 10 35 -5 11 -10
20 -15 20 -10 0 4 6 2 14 -4 11 -9 15 -8 20 5 4 10 2 22 -4 28 -8 8 -9 6 -5
-6 9 -22 -8 -23 -29 -3 -8 8 -21 15 -30 15 -8 0 -31 16 -52 35 -43 40 -44 41
-45 18 0 -12 -4 -9 -10 8 -6 15 -20 30 -32 34 -19 6 -20 8 -4 12 10 3 16 10
14 16 -2 7 1 23 8 37 6 14 11 32 10 40 -1 8 5 24 12 35 18 27 16 35 -4 30 -10
-3 -4 1 12 9 25 13 21 22 -7 17 -12 -2 -9 14 4 27 8 8 8 15 -2 27 -11 13 -10
15 1 10 9 -3 19 6 27 25 8 17 18 28 23 24 5 -3 9 -1 9 5 0 5 -5 13 -11 16 -6
4 -4 12 8 20 10 7 18 17 18 22 2 26 20 55 38 63 22 9 22 9 -1 9 -14 1 -21 5
-16 12 3 6 17 9 31 6 19 -3 27 1 35 19 6 13 14 21 18 19 4 -3 13 2 20 10 7 8
17 12 24 8 6 -3 8 -3 4 2 -4 4 -3 15 4 22 9 11 9 17 -3 24 -11 7 -11 9 -1 9 8
0 16 -9 19 -20 8 -32 19 -23 19 15 0 19 -3 35 -7 35 -4 0 -5 8 -2 19 3 10 0
22 -6 25 -18 12 -13 36 6 29 11 -4 13 -8 5 -11 -7 -2 -9 -8 -6 -13 8 -13 34 9
34 27 0 8 -3 13 -7 13 -35 -6 -48 36 -15 48 9 4 22 14 29 22 11 14 12 14 13 1
0 -9 -3 -20 -8 -25 -4 -6 -5 -9 -3 -8 2 2 11 -3 19 -10 13 -10 15 -9 8 3 -4 8
2 4 13 -9 12 -13 21 -28 21 -35 0 -6 9 -17 20 -24 11 -7 17 -18 14 -27 -4 -8
-1 -15 6 -15 6 0 8 -4 5 -10 -3 -5 -3 -10 2 -10 4 0 17 -12 27 -27 11 -14 14
-23 8 -19 -18 11 -15 -9 3 -24 9 -7 14 -19 11 -27 -3 -7 1 -13 9 -13 8 0 17
-11 21 -25 3 -13 15 -27 25 -30 21 -7 24 -16 9 -31 -8 -8 -6 -15 5 -24 8 -7
15 -18 15 -26 0 -7 9 -16 21 -19 13 -4 18 -12 15 -21 -3 -8 -2 -13 3 -10 5 3
16 -10 25 -29 19 -40 26 -43 44 -15 11 18 9 24 -13 44 -14 13 -25 33 -25 44 0
11 -16 37 -35 57 -20 20 -38 49 -42 65 -3 16 -12 35 -19 41 -8 6 -14 17 -14
24 0 7 -7 18 -15 25 -9 7 -13 15 -11 18 3 3 -3 17 -14 32 -11 16 -20 31 -20
36 0 4 -13 28 -29 53 -16 25 -33 60 -37 76 l-7 30 22 -19 c11 -11 21 -15 21
-10z m-774 7 c-15 -4 -16 -7 -5 -13 7 -5 10 -12 6 -17 -5 -4 -12 -1 -17 7 -15
23 -12 30 13 29 19 -1 19 -2 3 -6z m1304 -7 c0 -3 -4 -8 -10 -11 -5 -3 -10 -1
-10 4 0 6 5 11 10 11 6 0 10 -2 10 -4z m-33 -12 c-3 -3 -12 -4 -19 -1 -8 3 -5
6 6 6 11 1 17 -2 13 -5z m373 2 c0 -9 -51 -56 -61 -56 -7 0 -9 -3 -6 -7 4 -3
-1 -12 -11 -19 -20 -16 -36 -18 -27 -4 3 6 0 10 -7 10 -7 0 6 10 30 21 24 12
49 30 55 40 10 17 27 26 27 15z m-328 -18 c-9 -9 -6 -15 16 -24 l27 -12 -35
-1 c-27 -1 -39 -7 -52 -28 -10 -16 -18 -22 -18 -15 0 14 -32 29 -105 48 -49
13 -49 13 38 7 81 -5 89 -4 108 16 11 11 23 21 26 21 4 0 2 -5 -5 -12z m414 3
c-4 -5 0 -12 6 -14 8 -3 6 -6 -4 -6 -10 -1 -18 6 -18 14 0 8 5 15 11 15 5 0 8
-4 5 -9z m12 -53 c-4 -28 -24 -34 -31 -9 -6 22 0 31 20 31 9 0 13 -8 11 -22z
m-263 -28 c-3 -5 -12 -7 -20 -3 -21 7 -19 13 6 13 11 0 18 -4 14 -10z m-1365
-4 c0 -2 -9 -6 -20 -9 -11 -3 -20 -1 -20 4 0 5 9 9 20 9 11 0 20 -2 20 -4z
m1308 -9 c-12 -14 -67 -15 -88 -2 -5 3 -10 1 -10 -4 0 -6 -10 -11 -22 -11 -20
1 -21 2 -7 13 9 7 44 13 78 15 52 2 60 0 49 -11z m1237 3 c3 -5 1 -10 -4 -10
-6 0 -11 5 -11 10 0 6 2 10 4 10 3 0 8 -4 11 -10z m-905 -11 c0 -20 -34 -69
-48 -69 -9 0 -12 -7 -9 -20 3 -10 2 -21 -2 -23 -3 -2 -1 -3 6 -1 6 1 19 -4 30
-11 16 -13 16 -14 2 -15 -18 0 -36 -30 -19 -30 6 0 10 5 10 12 0 8 3 9 10 2
14 -14 2 -44 -19 -45 -12 0 -12 -2 4 -9 12 -5 14 -9 6 -9 -12 -1 -12 -4 1 -18
8 -10 15 -33 17 -52 2 -34 1 -34 -18 -17 -12 11 -21 14 -26 7 -4 -7 -12 -8
-23 -2 -11 6 -21 4 -30 -5 -11 -12 -9 -14 12 -14 14 0 27 -4 31 -9 7 -12 -36
-11 -52 2 -9 6 -9 15 -1 33 11 23 12 24 36 8 23 -15 24 -15 19 -1 -3 9 -2 19
3 22 4 3 10 0 12 -7 3 -8 7 -6 11 5 8 22 -8 31 -25 14 -8 -9 -21 -11 -33 -7
-20 8 -20 8 -1 16 18 7 18 8 -3 16 -13 4 -19 13 -15 19 4 8 9 7 15 -2 7 -12 9
-12 9 0 0 8 6 11 18 7 16 -7 16 -6 1 9 -14 14 -22 15 -60 4 -24 -6 -57 -13
-72 -15 -16 -2 -33 -7 -39 -10 -6 -4 -6 1 1 13 6 11 7 23 4 27 -3 3 1 6 11 6
10 0 14 5 10 11 -3 6 6 3 22 -7 25 -16 27 -16 16 -2 -10 13 -11 22 -2 37 6 12
8 21 5 21 -3 0 0 6 7 14 11 12 15 12 29 0 14 -13 17 -13 22 0 4 9 14 12 25 9
17 -4 21 2 27 36 6 39 25 60 53 61 6 0 12 -5 12 -11z m-1775 -29 c-3 -5 -14
-10 -23 -9 -14 0 -13 2 3 9 27 11 27 11 20 0z m2427 1 c4 11 8 10 21 -3 13
-12 14 -18 4 -22 -6 -4 -2 -4 10 -2 12 2 22 1 21 -3 -2 -20 4 -31 19 -31 15 0
14 -2 -3 -16 -10 -8 -14 -13 -7 -10 6 4 14 2 18 -4 3 -5 2 -10 -4 -10 -6 0 -9
-6 -7 -12 1 -7 1 -10 -1 -5 -3 4 -14 7 -26 7 -15 0 -18 3 -9 8 8 5 10 16 6 27
-5 13 -4 16 4 11 8 -5 10 -2 5 9 -3 9 -9 13 -12 8 -3 -4 -13 -8 -21 -8 -8 0
-14 -6 -12 -12 3 -16 -10 -17 -26 -1 -13 13 -16 60 -5 71 4 4 10 2 14 -4 5 -8
8 -7 11 2z m-2122 -15 c0 -3 -4 -8 -10 -11 -5 -3 -10 -1 -10 4 0 6 5 11 10 11
6 0 10 -2 10 -4z m-312 -31 c-3 -27 -10 -25 -15 5 -2 11 2 20 7 20 5 0 9 -11
8 -25z m179 7 c0 -7 -7 -10 -14 -7 -8 3 -19 5 -24 5 -5 0 -9 4 -9 9 0 5 10 8
23 7 13 0 24 -7 24 -14z m1592 -20 c-5 -2 -7 -8 -3 -13 7 -13 -10 -11 -23 2
-8 8 -6 16 6 28 14 15 17 15 22 1 4 -8 2 -17 -2 -18z m-1394 9 c-3 -6 -11 -11
-16 -11 -5 0 -4 6 3 14 14 16 24 13 13 -3z m203 2 c16 -16 16 -16 -1 -10 -10
4 -23 7 -28 7 -6 0 -7 5 -4 10 9 14 14 13 33 -7z m945 -24 c-3 -10 -10 -19
-17 -19 -6 0 -6 -4 3 -9 10 -7 10 -10 1 -16 -7 -4 -16 -1 -21 6 -12 20 -11 49
2 49 8 0 7 5 -1 16 -12 13 -10 14 12 3 18 -8 24 -17 21 -30z m34 35 c-3 -3
-12 -4 -19 -1 -8 3 -5 6 6 6 11 1 17 -2 13 -5z m1051 -19 c-3 -3 -9 2 -12 12
-6 14 -5 15 5 6 7 -7 10 -15 7 -18z m42 -5 c0 -11 -5 -20 -11 -20 -5 0 -7 -5
-4 -11 12 -19 12 -71 -1 -76 -9 -3 -9 -12 0 -35 8 -23 8 -32 0 -35 -7 -2 -10
-14 -7 -26 3 -13 1 -18 -4 -11 -4 6 -17 14 -28 18 -16 6 -14 1 9 -23 16 -17
26 -34 22 -38 -4 -4 -11 -1 -16 7 -7 11 -10 7 -16 -14 -5 -20 -9 -24 -15 -14
-12 18 -11 31 1 23 6 -3 7 1 4 9 -3 9 -10 13 -15 10 -5 -3 -6 2 -2 11 3 10 0
21 -8 26 -11 7 -10 9 6 10 11 1 27 0 35 -1 12 -1 13 1 3 11 -7 7 -13 18 -13
24 0 5 4 3 10 -5 5 -8 12 -12 15 -8 10 9 -18 49 -31 44 -7 -3 -14 4 -17 15 -4
15 -2 17 6 11 7 -5 21 -6 32 -2 17 6 16 8 -10 15 -17 5 -33 8 -37 7 -4 -1 -5
5 -1 13 3 10 10 12 17 7 6 -4 18 -8 26 -7 8 1 21 3 28 3 7 1 10 7 6 13 -4 8
-9 7 -15 -2 -6 -10 -9 -10 -9 -2 0 7 -6 11 -12 9 -7 -1 -10 -1 -6 1 4 2 4 11
1 19 -3 8 0 14 7 14 6 0 8 -5 4 -11 -4 -7 -1 -10 7 -7 8 3 13 15 12 27 -2 13
3 21 12 21 8 0 15 -9 15 -20z m-2615 0 c3 -5 -1 -10 -10 -10 -9 0 -13 5 -10
10 3 6 8 10 10 10 2 0 7 -4 10 -10z m180 0 c3 -5 -1 -10 -9 -10 -9 0 -16 5
-16 10 0 6 4 10 9 10 6 0 13 -4 16 -10z m1095 -4 c0 -2 -7 -7 -16 -10 -8 -3
-12 -2 -9 4 6 10 25 14 25 6z m156 -22 c-3 -7 0 -15 7 -18 7 -4 -1 -4 -17 0
-37 7 -79 34 -54 34 9 0 20 -5 23 -10 4 -6 11 -8 16 -4 5 3 7 10 4 15 -3 5 1
6 10 3 9 -4 14 -12 11 -20z m998 11 c3 -8 1 -15 -4 -15 -6 0 -10 7 -10 15 0 8
2 15 4 15 2 0 6 -7 10 -15z m-2208 -16 c1 -8 2 -19 3 -26 1 -15 74 -10 79 6 7
20 20 11 15 -10 -4 -16 -11 -19 -29 -15 -17 5 -24 2 -24 -9 0 -17 -16 -20 -25
-5 -4 6 -21 8 -43 4 -32 -6 -34 -5 -21 8 10 11 16 13 21 4 6 -8 8 -7 8 2 0 7
-7 15 -15 18 -15 6 -21 25 -7 23 4 -1 14 -1 22 0 13 1 13 2 0 12 -13 9 -13 10
0 6 8 -2 16 -10 16 -18z m-201 1 c3 -6 -1 -7 -9 -4 -18 7 -21 14 -7 14 6 0 13
-4 16 -10z m134 -8 c-7 -10 -18 -19 -25 -19 -9 0 -10 5 -3 19 5 10 16 18 24
18 12 0 13 -4 4 -18z m131 7 c0 -5 -4 -8 -9 -4 -5 3 -12 1 -16 -5 -4 -6 -11
-7 -18 -3 -7 4 -4 9 9 14 27 11 34 10 34 -2z m2100 -11 c0 -6 -6 -5 -15 2 -8
7 -15 14 -15 16 0 2 7 1 15 -2 8 -4 15 -11 15 -16z m145 12 c-3 -5 -12 -10
-18 -10 -7 0 -6 4 3 10 19 12 23 12 15 0z m-2415 -55 c15 -20 15 -20 -9 0 -12
11 -27 29 -33 40 l-10 20 18 -20 c11 -11 26 -29 34 -40z m1275 39 c13 -5 14
-9 3 -15 -8 -6 0 -6 20 -3 32 7 33 6 27 -22 -5 -22 -4 -25 4 -14 7 9 11 10 11
3 0 -28 -31 -23 -43 7 -4 11 -6 10 -6 -5 -1 -17 -3 -17 -11 -5 -6 10 -10 11
-10 3 0 -7 -5 -13 -11 -13 -6 0 -8 7 -5 17 4 9 1 20 -6 25 -10 6 -10 8 2 8 13
0 13 1 0 10 -17 11 -1 13 25 4z m1300 -24 c3 -5 -1 -10 -9 -10 -9 0 -16 5 -16
10 0 6 4 10 9 10 6 0 13 -4 16 -10z m41 -6 c-3 -23 -13 -26 -18 -6 -3 11 0 19
7 19 7 0 12 -6 11 -13z m-258 -34 c2 -23 -2 -30 -15 -29 -10 0 -13 3 -7 5 6 3
9 16 6 29 -2 14 0 25 5 25 5 0 10 -13 11 -30z m-2178 10 c0 -5 -5 -10 -11 -10
-5 0 -7 5 -4 10 3 6 8 10 11 10 2 0 4 -4 4 -10z m-65 -25 c-1 -14 -4 -28 -8
-31 -3 -3 -3 -12 -1 -19 9 -21 -31 -38 -46 -20 -7 8 -20 15 -29 16 -12 0 -11
2 4 9 27 12 43 12 25 0 -12 -8 -12 -10 3 -16 10 -4 23 -2 30 5 8 8 8 11 -1 11
-7 0 -12 5 -12 10 0 6 7 10 15 10 8 0 12 6 9 14 -3 8 -12 12 -20 9 -8 -3 -14
0 -14 5 0 9 11 14 40 21 3 0 5 -10 5 -24z m-259 0 c-11 -8 -22 -12 -25 -9 -6
6 19 24 34 24 6 -1 1 -7 -9 -15z m184 5 c0 -5 -4 -10 -10 -10 -5 0 -10 5 -10
10 0 6 5 10 10 10 6 0 10 -4 10 -10z m1465 0 c-4 -6 -10 -8 -14 -6 -4 3 -8 -4
-8 -15 -1 -10 3 -19 8 -19 6 0 8 4 4 9 -3 5 -1 12 4 15 13 9 22 -9 15 -29 -4
-9 -12 -14 -20 -11 -7 3 -14 0 -16 -5 -2 -5 -23 -12 -48 -14 -32 -3 -40 -1
-28 6 9 5 28 10 42 11 31 3 32 6 9 24 -14 9 -21 10 -33 1 -13 -10 -13 -10 -1
5 10 14 17 15 34 7 17 -9 19 -9 14 4 -6 15 5 25 31 26 7 1 10 -4 7 -9z m-1345
-12 c0 -7 -5 -20 -10 -28 -8 -11 -9 -9 -8 13 2 26 18 40 18 15z m1159 3 c11
-7 5 -11 -22 -16 -20 -4 -37 -11 -37 -16 0 -5 -7 -9 -16 -9 -8 0 -12 5 -9 10
3 6 1 10 -4 10 -6 0 -11 -5 -11 -11 0 -5 -4 -7 -10 -4 -6 4 -5 11 3 20 9 10
15 10 26 1 11 -8 15 -8 18 1 2 7 11 9 19 6 8 -3 14 0 14 6 0 13 10 14 29 2z
m1281 -60 c0 -12 -2 -13 -9 -3 -4 7 -14 12 -21 10 -7 -2 -15 3 -18 11 -3 8 0
11 7 7 6 -4 11 -2 11 5 0 8 4 8 15 -1 8 -7 15 -20 15 -29z m-2736 13 c3 -8 2
-12 -4 -9 -6 3 -10 10 -10 16 0 14 7 11 14 -7z m1303 -6 c-3 -8 -6 -5 -6 6 -1
11 2 17 5 13 3 -3 4 -12 1 -19z m119 6 c-3 -9 -6 -18 -6 -20 0 -3 -4 -3 -10 1
-11 7 -2 35 12 35 6 0 7 -7 4 -16z m28 1 c-4 -8 -10 -15 -15 -15 -4 0 -6 7 -3
15 4 8 10 15 15 15 4 0 6 -7 3 -15z m1036 6 c0 -17 -18 -21 -24 -6 -3 9 0 15
9 15 8 0 15 -4 15 -9z m183 2 c-7 -2 -19 -2 -25 0 -7 3 -2 5 12 5 14 0 19 -2
13 -5z m-2593 -7 c0 -3 -4 -8 -10 -11 -5 -3 -10 -1 -10 4 0 6 5 11 10 11 6 0
10 -2 10 -4z m64 -30 c-7 -18 -20 -21 -29 -6 -3 6 1 10 9 10 9 0 16 5 16 12 0
6 2 9 5 6 3 -3 3 -13 -1 -22z m1212 7 c-4 -13 4 -23 26 -36 17 -10 28 -20 25
-24 -4 -3 -14 0 -23 8 -10 8 -36 14 -58 14 -23 0 -41 5 -41 10 0 10 10 11 30
4 6 -2 11 -1 12 4 3 8 26 36 31 37 2 0 1 -8 -2 -17z m276 -15 c-9 -9 -15 -9
-24 1 -11 11 -10 13 5 8 10 -4 17 -2 17 5 0 6 3 8 7 5 4 -4 1 -13 -5 -19z
m1056 -17 c-15 -21 -28 -19 -28 5 0 8 6 11 15 8 11 -5 14 -2 9 12 -6 15 -4 17
6 7 10 -9 9 -15 -2 -32z m-1428 19 c0 -5 -10 -10 -22 -9 -22 0 -22 1 -3 9 11
5 21 9 23 9 1 1 2 -3 2 -9z m180 1 c0 -5 -7 -12 -16 -15 -21 -8 -24 -8 -24 5
0 5 5 7 10 4 6 -3 10 -1 10 4 0 6 5 11 10 11 6 0 10 -4 10 -9z m1276 -17 c-4
-9 -9 -15 -11 -12 -3 3 -3 13 1 22 4 9 9 15 11 12 3 -3 3 -13 -1 -22z m-2691
6 c3 -5 1 -10 -4 -10 -6 0 -11 5 -11 10 0 6 2 10 4 10 3 0 8 -4 11 -10z m191
-25 c6 -8 14 -12 17 -8 4 3 7 2 7 -4 0 -16 -48 -25 -68 -14 -14 8 -12 11 13
17 26 6 27 8 10 14 -13 5 -27 2 -40 -9 -17 -14 -18 -14 -7 0 6 9 9 19 6 22 -4
3 6 4 22 1 16 -3 34 -11 40 -19z m1314 10 c-7 -8 -17 -12 -23 -8 -6 4 -3 9 9
14 27 11 28 11 14 -6z m42 8 c-6 -2 -9 -10 -6 -15 4 -7 2 -8 -5 -4 -13 9 -5
26 12 25 9 0 8 -2 -1 -6z m-337 -23 c3 -5 2 -10 -4 -10 -5 0 -13 5 -16 10 -3
6 -2 10 4 10 5 0 13 -4 16 -10z m405 -11 c0 -6 -4 -8 -9 -5 -5 4 -11 1 -13 -4
-2 -6 -11 -4 -23 5 -16 14 -17 16 -3 11 10 -3 20 -1 23 5 7 11 25 2 25 -12z
m81 -3 c-7 -8 -20 -12 -29 -9 -15 6 -15 4 -4 -10 12 -15 11 -16 -17 -12 -33 4
-51 -9 -26 -19 21 -8 19 -25 -3 -19 -10 2 -26 -5 -36 -16 -18 -20 -13 -27 16
-22 4 0 5 -5 2 -12 -2 -7 9 -20 26 -30 16 -10 30 -22 30 -27 0 -14 -28 -1 -34
16 -3 8 -10 14 -15 14 -6 0 -8 -7 -5 -15 8 -19 -3 -19 -22 -1 -10 11 -11 15
-1 19 14 4 -6 27 -42 46 -12 7 -20 15 -17 18 3 3 12 0 21 -7 13 -11 14 -10 8
5 -5 14 -3 17 9 13 19 -8 43 7 34 21 -5 8 -13 8 -27 1 -10 -6 -19 -8 -19 -4 0
3 -7 1 -15 -6 -10 -8 -15 -9 -15 -2 0 11 100 46 108 37 2 -2 11 3 19 11 9 8
22 13 30 10 7 -3 16 1 20 10 3 8 8 13 11 10 3 -3 -1 -12 -7 -20z m44 -15 c1
-11 -3 -17 -10 -14 -7 2 -12 16 -12 29 0 30 20 16 22 -15z m1085 28 c0 -6 -7
-9 -15 -5 -8 3 -14 2 -14 -2 1 -4 0 -9 -1 -12 -12 -32 -5 -45 22 -41 8 1 -1
-29 -14 -46 -6 -7 -7 -16 -4 -22 4 -5 -3 -13 -15 -16 -25 -8 -43 13 -28 32 6
7 8 17 4 23 -3 5 -1 10 6 10 8 0 7 5 -2 17 -12 14 -12 16 0 8 10 -6 13 -4 9 6
-9 24 10 59 32 59 11 0 20 -5 20 -11z m-1466 -14 c11 -8 15 -15 9 -15 -7 0
-15 5 -19 11 -3 6 -15 9 -25 6 -11 -3 -17 -1 -13 4 8 13 26 11 48 -6z m1288
-13 c-20 -19 -22 -26 -11 -32 11 -7 9 -17 -10 -54 -12 -25 -23 -46 -24 -46 -8
0 1 79 10 96 9 16 9 24 0 34 -10 10 -9 11 2 5 10 -6 13 -4 9 6 -4 10 2 14 22
14 l28 0 -26 -23z m-1192 8 c0 -5 -5 -10 -11 -10 -5 0 -7 5 -4 10 3 6 8 10 11
10 2 0 4 -4 4 -10z m45 0 c3 -5 -1 -10 -10 -10 -9 0 -13 5 -10 10 3 6 8 10 10
10 2 0 7 -4 10 -10z m50 -1 c11 -17 -1 -21 -15 -4 -8 9 -8 15 -2 15 6 0 14 -5
17 -11z m-1578 -18 c0 -11 -7 -17 -14 -14 -9 4 -9 8 0 19 16 17 16 17 14 -5z
m149 8 c7 -11 -27 -11 -45 0 -9 6 -5 9 13 9 15 0 29 -4 32 -9z m1212 -13 c-7
-7 -19 -11 -27 -8 -11 4 -10 7 5 13 29 12 36 10 22 -5z m377 -20 c-2 -6 9 -21
26 -34 16 -13 29 -19 29 -13 0 5 -5 13 -10 16 -12 7 -4 25 11 25 5 0 9 -13 9
-30 0 -21 -5 -30 -16 -30 -8 0 -12 -4 -9 -10 3 -5 0 -7 -8 -4 -9 3 -13 13 -10
25 6 20 -11 27 -22 9 -3 -5 -12 -10 -18 -10 -7 0 -4 5 6 11 16 9 16 11 1 27
-10 10 -12 18 -6 20 6 2 8 11 5 20 -4 14 -3 14 5 3 6 -8 9 -19 7 -25z m-315
13 c0 -17 -42 -41 -65 -37 -14 3 -28 1 -31 -4 -3 -5 -12 -7 -19 -4 -8 3 -19
-3 -27 -11 -11 -14 -11 -16 3 -11 8 3 26 -1 40 -9 13 -8 16 -12 6 -9 -11 3
-24 3 -30 -1 -28 -17 -43 -9 -43 23 1 28 4 32 26 29 14 -1 33 4 43 13 9 8 17
12 17 8 0 -4 10 0 21 8 21 14 59 18 59 5z m110 -21 c0 -26 -13 -16 -17 13 -2
12 1 18 7 14 5 -3 10 -16 10 -27z m1005 22 c3 -5 1 -10 -4 -10 -6 0 -11 5 -11
10 0 6 2 10 4 10 3 0 8 -4 11 -10z m29 -6 c3 -8 2 -12 -4 -9 -6 3 -10 10 -10
16 0 14 7 11 14 -7z m-2547 -19 c-4 -8 -14 -14 -24 -14 -17 1 -17 2 0 6 9 2
17 12 17 20 0 9 3 14 6 10 4 -3 4 -13 1 -22z m143 11 c0 -8 -5 -18 -12 -22 -7
-4 -8 -3 -4 4 4 7 2 12 -3 12 -6 0 -11 5 -11 10 0 6 7 10 15 10 8 0 15 -6 15
-14z m1101 -4 c-7 -2 -18 1 -23 6 -8 8 -4 9 13 5 13 -4 18 -8 10 -11z m239 -3
c0 -5 -4 -9 -10 -9 -5 0 -10 7 -10 16 0 8 5 12 10 9 6 -3 10 -10 10 -16z
m1033 -27 c11 -22 11 -29 1 -29 -7 0 -14 13 -16 29 -3 15 -3 28 -2 28 1 0 9
-13 17 -28z m-2433 8 c0 -5 -4 -10 -10 -10 -5 0 -10 5 -10 10 0 6 5 10 10 10
6 0 10 -4 10 -10z m1142 -16 c-5 -34 -11 -44 -27 -44 -21 0 -19 20 3 20 15 1
15 2 -2 15 -18 14 -18 15 -2 15 10 0 14 5 10 11 -4 7 -1 10 7 7 8 -3 13 -14
11 -24z m168 6 c0 -5 -2 -10 -4 -10 -3 0 -8 5 -11 10 -3 6 -1 10 4 10 6 0 11
-4 11 -10z m281 -7 c13 -16 12 -17 -3 -4 -17 13 -22 21 -14 21 2 0 10 -8 17
-17z m-1537 -18 c-29 -22 -42 -17 -15 6 13 11 26 17 29 14 3 -3 -3 -12 -14
-20z m1229 -4 c9 0 8 2 0 6 -7 2 -13 9 -13 15 0 6 6 6 15 -2 8 -7 15 -19 15
-27 0 -27 -59 3 -60 30 0 5 7 1 16 -7 8 -9 21 -16 27 -15z m-1313 -10 c13 -25
13 -31 -1 -31 -5 0 -8 4 -4 9 3 5 -2 17 -11 25 -8 9 -11 16 -5 16 6 0 15 -9
21 -19z m1496 3 c18 -14 18 -14 -6 -3 -31 14 -36 19 -24 19 6 0 19 -7 30 -16z
m134 -4 c0 -5 -5 -10 -11 -10 -5 0 -7 5 -4 10 3 6 8 10 11 10 2 0 4 -4 4 -10z
m-543 -13 c0 -7 -8 -14 -18 -14 -15 -1 -16 1 -6 12 15 18 24 19 24 2z m173 -2
c10 -12 16 -13 26 -4 11 9 14 7 14 -9 0 -15 -5 -19 -20 -15 -11 3 -20 9 -20
14 0 5 -7 9 -15 9 -8 0 -15 5 -15 10 0 15 16 12 30 -5z m490 -5 c9 -16 8 -19
-6 -13 -11 4 -15 3 -10 -5 3 -6 2 -14 -4 -17 -7 -4 -10 5 -8 24 3 36 13 40 28
11z m-1704 -16 c-4 -9 -9 -15 -11 -12 -3 3 -3 13 1 22 4 9 9 15 11 12 3 -3 3
-13 -1 -22z m174 0 c12 -30 4 -96 -17 -141 -14 -30 -13 -43 10 -157 26 -130
42 -174 67 -187 8 -4 50 -13 92 -20 45 -8 74 -17 71 -23 -4 -5 1 -7 10 -3 9 3
23 0 31 -8 7 -8 32 -22 55 -31 23 -9 41 -21 41 -26 0 -6 6 -8 14 -5 8 3 16 2
18 -3 2 -5 10 -10 18 -12 8 -2 20 -9 26 -17 6 -8 18 -15 26 -17 39 -5 60 -18
68 -40 5 -13 16 -25 25 -25 24 -2 28 -4 62 -22 22 -12 33 -13 35 -5 3 7 9 8
19 3 18 -12 37 -16 69 -17 15 0 18 -2 8 -5 -22 -6 -30 -30 -12 -37 23 -9 8
-23 -31 -30 -35 -7 -58 -26 -31 -26 19 0 22 -30 4 -30 -7 -1 -4 -6 7 -13 25
-15 29 -34 13 -56 -12 -14 -11 -15 5 -2 9 7 17 18 17 23 0 13 30 42 36 35 3
-2 -1 -11 -8 -19 -7 -7 -14 -20 -16 -28 -2 -8 -16 -28 -31 -45 -15 -16 -41
-48 -57 -70 -16 -22 -31 -42 -34 -45 -12 -10 -116 -147 -140 -182 -25 -38 -36
-43 -78 -32 -19 5 -22 12 -18 30 4 13 3 24 -1 24 -5 0 -9 11 -9 25 -1 14 -14
41 -28 60 -14 18 -26 38 -26 43 0 5 -9 17 -20 27 -11 10 -18 20 -15 23 2 3 -4
17 -15 32 -11 16 -20 31 -20 34 0 3 -16 29 -35 56 -20 28 -38 64 -42 80 -3 17
-10 30 -15 30 -6 0 -7 -8 -3 -17 10 -27 35 -176 30 -181 -2 -2 -7 9 -10 24
-12 55 -35 95 -66 112 -50 27 -79 52 -79 68 0 8 7 14 15 14 23 0 18 26 -10 44
-24 16 -25 41 -1 59 6 5 0 5 -13 2 -25 -8 -25 -9 -6 38 6 15 -38 18 -52 3 -5
-5 -1 -7 8 -3 13 4 16 1 12 -14 -7 -25 -14 -24 -47 4 -30 26 -40 58 -22 69 18
12 29 9 23 -6 -4 -10 0 -12 14 -9 10 3 19 0 19 -6 0 -6 8 -11 18 -11 14 0 14
2 3 9 -11 7 -10 10 4 12 17 4 17 5 2 21 -10 9 -14 24 -11 33 4 9 -1 22 -12 31
-17 14 -17 15 -2 10 15 -5 16 -3 5 15 -9 15 -9 21 0 27 9 6 6 13 -11 26 -21
15 -23 21 -14 53 10 38 3 56 -13 33 -8 -11 -9 -9 -5 11 3 15 0 34 -8 45 -10
13 -11 24 -5 36 5 10 6 18 1 18 -5 0 -8 10 -7 23 1 12 -3 25 -9 29 -7 5 -5 8
6 8 25 0 28 23 4 37 -12 7 -16 12 -9 13 12 0 22 37 27 97 1 18 5 36 9 39 4 4
7 17 7 29 0 27 8 35 32 35 11 0 23 -11 28 -26z m1275 16 c3 -5 2 -10 -4 -10
-5 0 -13 5 -16 10 -3 6 -2 10 4 10 5 0 13 -4 16 -10z m1220 -8 c-3 -3 -11 0
-18 7 -9 10 -8 11 6 5 10 -3 15 -9 12 -12z m-2431 -7 c-4 -8 -7 -15 -9 -15 -2
0 -5 7 -9 15 -3 9 0 15 9 15 9 0 12 -6 9 -15z m876 11 c0 -3 -4 -8 -10 -11 -5
-3 -10 -1 -10 4 0 6 5 11 10 11 6 0 10 -2 10 -4z m274 -11 c-4 -9 0 -15 10
-15 9 0 16 -4 16 -10 0 -14 -5 -13 -42 11 -18 12 -25 19 -15 15 9 -3 17 -1 17
4 0 6 4 10 10 10 5 0 7 -7 4 -15z m-1184 1 c0 -3 -4 -8 -10 -11 -5 -3 -10 -1
-10 4 0 6 5 11 10 11 6 0 10 -2 10 -4z m970 -11 c0 -8 -9 -15 -20 -15 -20 0
-26 11 -13 23 12 13 33 7 33 -8z m30 5 c0 -5 -4 -10 -10 -10 -5 0 -10 5 -10
10 0 6 5 10 10 10 6 0 10 -4 10 -10z m1174 -2 c-3 -4 0 -8 7 -8 7 0 9 -3 6 -6
-4 -4 -13 -2 -20 4 -8 7 -18 8 -22 4 -5 -4 -5 -2 -2 4 3 6 13 11 21 11 8 0 13
-4 10 -9z m-2344 -18 c-6 -11 -13 -20 -16 -20 -2 0 0 9 6 20 6 11 13 20 16 20
2 0 0 -9 -6 -20z m1426 2 c-10 -2 -22 0 -28 6 -6 6 0 7 19 4 21 -5 23 -7 9
-10z m1214 14 c0 -3 -4 -8 -10 -11 -5 -3 -10 -1 -10 4 0 6 5 11 10 11 6 0 10
-2 10 -4z m-1560 -16 c0 -5 -8 -7 -17 -4 -15 5 -15 3 1 -10 12 -9 15 -16 7
-16 -20 0 -43 27 -28 33 21 9 37 7 37 -3z m600 0 c0 -5 -5 -10 -11 -10 -5 0
-7 5 -4 10 3 6 8 10 11 10 2 0 4 -4 4 -10z m-1713 -6 c-3 -3 -12 -4 -19 -1 -8
3 -5 6 6 6 11 1 17 -2 13 -5z m1263 2 c0 -3 -4 -8 -10 -11 -5 -3 -10 -1 -10 4
0 6 5 11 10 11 6 0 10 -2 10 -4z m60 -6 c0 -5 -2 -10 -4 -10 -3 0 -8 5 -11 10
-3 6 -1 10 4 10 6 0 11 -4 11 -10z m77 -16 c-7 -7 -37 7 -37 17 0 6 9 5 21 -1
11 -7 19 -14 16 -16z m-227 1 c0 -1 -6 -7 -13 -13 -10 -8 -13 -6 -14 8 -1 13
3 17 13 13 8 -3 14 -6 14 -8z m44 3 c7 -7 11 -20 9 -29 -3 -11 2 -19 14 -22
16 -5 15 -5 -2 -4 -11 1 -26 -2 -32 -6 -7 -5 -13 -4 -13 1 0 6 -7 13 -16 16
-12 4 -15 2 -10 -9 3 -8 1 -15 -3 -15 -5 0 -11 6 -14 14 -7 19 19 29 43 16 16
-8 19 -7 17 10 -1 11 -7 20 -14 20 -7 0 -13 5 -13 10 0 14 18 13 34 -2z m406
2 c-8 -5 -22 -9 -30 -9 -10 0 -8 3 5 9 27 12 43 12 25 0z m905 0 c3 -5 1 -10
-4 -10 -6 0 -11 5 -11 10 0 6 2 10 4 10 3 0 8 -4 11 -10z m-1170 -18 c-3 -3
-11 0 -18 7 -9 10 -8 11 6 5 10 -3 15 -9 12 -12z m1280 8 c3 -5 1 -10 -4 -10
-6 0 -11 5 -11 10 0 6 2 10 4 10 3 0 8 -4 11 -10z m-1528 -43 c1 -18 -3 -27
-13 -27 -17 0 -18 12 -2 28 9 9 9 12 0 12 -7 0 -12 5 -12 11 0 23 25 1 27 -24z
m588 3 c1 -14 -2 -17 -10 -10 -7 5 -15 6 -20 2 -4 -4 -2 4 4 16 14 26 24 23
26 -8z m-1707 -12 c-6 -18 -13 -27 -15 -21 -4 11 13 53 22 53 2 0 -1 -15 -7
-32z m2792 28 c0 -2 -7 -7 -16 -10 -8 -3 -12 -2 -9 4 6 10 25 14 25 6z m-1345
-26 c10 -11 16 -20 13 -20 -3 0 -13 9 -23 20 -10 11 -16 20 -13 20 3 0 13 -9
23 -20z m38 3 c-3 -7 -6 -13 -8 -13 -2 0 -5 6 -8 13 -3 8 1 14 8 14 7 0 11 -6
8 -14z m-2493 -1 c0 -10 -54 -42 -71 -42 -6 0 3 11 22 24 36 26 49 31 49 18z
m2385 -2 c-3 -5 -16 -10 -28 -9 -20 1 -20 2 3 9 14 4 26 8 28 9 2 1 0 -3 -3
-9z m-2147 -29 c21 -21 36 -28 51 -24 12 3 21 1 21 -6 0 -6 -7 -11 -16 -11
-14 0 -14 -3 -4 -15 8 -9 9 -15 2 -15 -6 0 -14 5 -17 10 -3 6 -11 10 -16 10
-6 0 -3 -7 6 -16 8 -9 22 -13 30 -10 9 3 27 1 42 -5 34 -13 106 -85 99 -98 -4
-5 3 -12 14 -16 38 -12 63 -88 38 -113 -9 -9 -9 -12 3 -12 9 0 22 -11 29 -25
8 -15 20 -23 29 -21 21 7 189 17 176 12 -5 -3 -71 -12 -145 -21 -159 -19 -170
-22 -170 -41 0 -8 16 -71 35 -142 19 -70 39 -143 45 -162 5 -19 21 -77 35
-129 24 -84 26 -116 9 -98 -4 3 -15 39 -25 79 -27 111 -55 214 -82 308 -14 47
-28 100 -32 117 -3 18 -10 35 -14 37 -4 3 -97 -24 -207 -58 -211 -67 -670
-215 -691 -223 -7 -3 -13 -1 -13 4 0 5 56 27 125 48 69 21 130 45 134 53 5 10
2 31 -10 56 -22 49 -23 56 -7 93 14 34 15 39 17 82 1 27 11 44 47 78 26 24 43
43 39 43 -4 0 -2 7 5 15 11 13 8 15 -14 15 -51 0 -17 41 50 59 22 6 62 25 89
43 32 21 50 28 53 20 2 -7 8 -12 13 -12 6 0 8 4 5 9 -10 16 42 68 74 75 16 3
44 9 61 12 26 5 35 2 54 -20 12 -14 28 -26 34 -26 7 0 0 12 -14 27 -23 25 -32
43 -21 43 3 0 18 -13 34 -29z m3422 24 c0 -3 -11 -17 -25 -31 -28 -28 -33 -20
-9 14 14 20 34 30 34 17z m-1243 -11 c-3 -3 -12 -4 -19 -1 -8 3 -5 6 6 6 11 1
17 -2 13 -5z m-57 -15 c0 -11 -27 -12 -34 -1 -2 4 4 9 15 9 10 1 19 -2 19 -8z
m-233 -13 c-3 -7 0 -19 6 -26 9 -10 9 -11 -1 -5 -10 5 -13 0 -10 -21 1 -15 -2
-29 -8 -31 -11 -4 -26 73 -17 90 8 13 35 7 30 -7z m60 8 c-3 -3 -12 -4 -19 -1
-8 3 -5 6 6 6 11 1 17 -2 13 -5z m78 -4 c-3 -5 -11 -10 -16 -10 -6 0 -7 5 -4
10 3 6 11 10 16 10 6 0 7 -4 4 -10z m145 -10 c-8 -5 -18 -6 -24 -3 -5 4 -1 10
10 13 24 9 34 2 14 -10z m-1405 -19 c-6 -5 -25 10 -25 20 0 5 6 4 14 -3 8 -7
12 -15 11 -17z m1212 13 c-3 -4 -1 -16 5 -28 9 -17 8 -19 -3 -8 -18 17 -32 15
-25 -4 3 -8 2 -12 -3 -9 -12 7 -25 -13 -26 -37 0 -10 -4 -18 -10 -19 -30 -3
-42 -20 -39 -51 2 -18 6 -39 9 -46 3 -8 0 -12 -7 -10 -15 5 -21 96 -9 117 7
10 13 11 31 1 16 -9 20 -9 15 0 -24 38 -5 82 40 93 11 2 22 5 24 6 2 0 1 -2
-2 -5z m98 -4 c3 -6 -1 -7 -9 -4 -18 7 -21 14 -7 14 6 0 13 -4 16 -10z m50 0
c3 -6 -1 -7 -9 -4 -18 7 -21 14 -7 14 6 0 13 -4 16 -10z m42 -26 c-3 -3 -12
-4 -19 -1 -8 3 -5 6 6 6 11 1 17 -2 13 -5z m-1072 -45 c0 -17 -6 -25 -22 -27
-13 -2 -23 -8 -23 -13 0 -5 -4 -9 -9 -9 -5 0 -8 8 -6 18 15 72 14 72 38 63 14
-5 22 -17 22 -32z m1135 19 c0 -6 -6 -5 -15 2 -8 7 -15 14 -15 16 0 2 7 1 15
-2 8 -4 15 -11 15 -16z m-2663 -6 c8 -5 2 -17 -18 -39 -40 -46 -62 -33 -50 29
1 6 24 14 46 17 6 0 15 -3 22 -7z m1183 -14 c0 -6 -6 -5 -15 2 -8 7 -15 14
-15 16 0 2 7 1 15 -2 8 -4 15 -11 15 -16z m1425 12 c3 -5 -1 -10 -10 -10 -9 0
-14 -4 -11 -9 9 -14 -23 -22 -43 -11 -10 5 -27 8 -37 6 -11 -2 -25 2 -31 9
-10 11 -6 13 25 8 20 -3 41 -10 47 -14 10 -10 32 -12 22 -2 -8 7 11 33 24 33
4 0 11 -4 14 -10z m-177 -19 c4 -11 -2 -12 -24 -7 -45 11 -55 28 -15 24 19 -2
37 -9 39 -17z m528 -6 c9 -8 11 -15 6 -15 -5 0 -15 7 -22 15 -7 8 -9 15 -6 15
4 0 14 -7 22 -15z m-549 -21 c2 -7 -7 -11 -21 -11 -17 0 -23 4 -19 14 6 16 34
14 40 -3z m1603 1 c11 -13 10 -15 -6 -9 -18 5 -18 5 0 -10 17 -14 17 -16 4
-16 -21 0 -30 14 -22 34 8 20 8 20 24 1z m-1470 -5 c0 -5 -2 -10 -4 -10 -3 0
-8 5 -11 10 -3 6 -1 10 4 10 6 0 11 -4 11 -10z m-2808 -32 c10 -28 12 -30 19
-12 7 18 8 17 8 -3 1 -14 -9 -29 -24 -39 -24 -16 -25 -18 -10 -40 14 -21 13
-24 -4 -34 -66 -35 -97 48 -46 123 31 45 43 46 57 5z m1441 25 c-7 -2 -19 -2
-25 0 -7 3 -2 5 12 5 14 0 19 -2 13 -5z m1817 -35 c0 -15 -15 -8 -28 12 -12
19 -11 20 8 8 11 -7 20 -16 20 -20z m1080 -5 c0 -15 -4 -22 -11 -18 -6 4 -8
13 -5 21 3 8 0 11 -10 7 -11 -4 -12 -8 -3 -19 16 -20 9 -23 -19 -9 -19 10 -20
14 -8 18 9 4 16 13 16 21 0 9 7 12 20 9 13 -4 20 -14 20 -30z m-1688 5 c-4
-16 -45 -19 -60 -4 -9 10 17 24 43 22 15 -1 20 -6 17 -18z m-1202 -2 c0 -3 -4
-8 -10 -11 -5 -3 -10 -1 -10 4 0 6 5 11 10 11 6 0 10 -2 10 -4z m2806 -39 c11
14 13 15 14 3 0 -13 1 -13 10 0 8 13 12 12 27 -4 17 -18 17 -18 1 -13 -10 4
-18 2 -18 -4 0 -6 -4 -8 -9 -4 -5 3 -12 1 -16 -4 -3 -6 -11 -8 -18 -5 -8 3
-13 -5 -14 -18 -1 -13 1 -18 5 -11 4 7 17 11 28 11 16 -2 20 -9 21 -36 0 -21
-2 -29 -7 -22 -5 7 -6 19 -3 27 3 7 -2 13 -11 13 -9 0 -16 -5 -16 -11 0 -5 -4
-7 -10 -4 -5 3 -10 1 -10 -4 0 -6 5 -11 12 -11 6 0 9 -2 6 -5 -2 -3 -19 0 -37
6 -22 8 -29 14 -21 19 9 6 7 11 -6 19 -13 7 -14 10 -5 11 23 0 50 30 45 48 -4
13 -3 13 6 -1 11 -18 12 -18 26 0z m-2806 -31 c0 -3 -4 -8 -10 -11 -5 -3 -10
-1 -10 4 0 6 5 11 10 11 6 0 10 -2 10 -4z m1054 -41 c-5 -38 -4 -45 10 -45 9
0 16 -4 16 -10 0 -12 -20 -13 -39 -1 -16 10 -7 101 10 101 6 0 8 -17 3 -45z
m36 35 c0 -5 -4 -10 -10 -10 -5 0 -10 5 -10 10 0 6 5 10 10 10 6 0 10 -4 10
-10z m1793 -46 c-4 -11 -7 -11 -19 1 -19 19 -18 24 5 18 12 -3 17 -11 14 -19z
m-107 -35 c3 -5 -4 -9 -15 -9 -11 0 -23 -4 -26 -10 -3 -5 -14 -10 -23 -9 -11
0 -12 2 -4 6 6 2 10 9 6 14 -3 5 2 9 11 9 9 0 14 4 11 9 -4 5 3 7 14 4 11 -3
23 -9 26 -14z m104 -18 c-6 -12 -16 -19 -21 -15 -6 4 -3 13 8 24 23 22 28 18
13 -9z m-3082 12 c-10 -2 -26 -2 -35 0 -10 3 -2 5 17 5 19 0 27 -2 18 -5z
m3045 -23 c3 -12 -4 -17 -24 -18 -31 -2 -32 -1 -24 20 7 19 43 17 48 -2z
m-1726 -4 c0 -8 -6 -12 -14 -9 -7 3 -10 9 -7 14 8 14 21 11 21 -5z m-50 -22
c-3 -3 -12 -4 -19 -1 -8 3 -5 6 6 6 11 1 17 -2 13 -5z m3 -21 c0 -5 -5 -15
-10 -23 -8 -12 -10 -11 -10 8 0 12 5 22 10 22 6 0 10 -3 10 -7z m-952 -37 c0
-14 -6 -27 -12 -29 -8 -3 -11 4 -8 24 5 35 20 39 20 5z m927 -63 c-4 -10 -8
-24 -8 -30 -1 -18 -17 -16 -17 1 0 23 11 46 22 46 6 0 7 -8 3 -17z m-31 -100
c-8 -34 -43 -103 -44 -86 0 17 39 113 47 113 2 0 0 -12 -3 -27z m-774 -63 c0
-5 -4 -10 -9 -10 -6 0 -13 5 -16 10 -3 6 1 10 9 10 9 0 16 -4 16 -10z m2407
-12 c-3 -8 -6 -5 -6 6 -1 11 2 17 5 13 3 -3 4 -12 1 -19z m22 -24 c-15 -14
-59 -9 -59 7 0 12 17 11 25 -1 8 -14 35 0 36 19 0 11 2 12 6 3 3 -8 -1 -20 -8
-28z m-1695 -19 c-4 -8 -10 -15 -15 -15 -4 0 -6 7 -3 15 4 8 10 15 15 15 4 0
6 -7 3 -15z m1716 -20 c-7 -9 -15 -13 -17 -11 -7 7 7 26 19 26 6 0 6 -6 -2
-15z m-88 -37 c-6 -6 -9 0 -9 18 0 23 1 24 9 10 7 -12 7 -21 0 -28z m55 23 c1
-14 -3 -18 -14 -14 -11 4 -14 2 -9 -5 4 -7 2 -12 -3 -12 -18 0 -13 28 7 39 9
6 17 11 17 11 1 0 1 -9 2 -19z m-27 -79 c0 -5 -7 -9 -15 -9 -8 0 -12 4 -9 9 3
4 9 8 15 8 5 0 9 -4 9 -8z m100 -32 c22 -22 48 -40 58 -40 14 0 15 -2 2 -10
-20 -13 -33 -13 -25 0 3 6 -1 7 -9 4 -9 -3 -13 -11 -9 -17 3 -6 1 -7 -5 -3 -7
4 -12 14 -12 22 0 14 -2 13 -16 0 -8 -9 -22 -16 -30 -16 -8 0 -13 -4 -10 -9 3
-5 -5 -8 -19 -8 -14 0 -22 3 -20 7 3 5 -1 10 -7 13 -7 2 -10 8 -5 12 4 5 13 3
19 -3 18 -18 32 -14 17 5 -13 15 -12 15 7 5 21 -11 34 -7 34 10 0 5 -6 8 -12
7 -26 -3 -34 2 -34 21 0 11 6 20 14 20 7 0 10 5 7 10 -15 25 19 6 55 -30z
m-193 -2 c-3 -8 -6 -5 -6 6 -1 11 2 17 5 13 3 -3 4 -12 1 -19z m78 2 c-3 -5
-11 -10 -16 -10 -6 0 -7 5 -4 10 3 6 11 10 16 10 6 0 7 -4 4 -10z m-2293 -30
c10 -11 13 -22 8 -25 -6 -4 -10 -2 -10 4 0 5 -7 17 -16 25 -8 9 -12 16 -7 16
5 0 16 -9 25 -20z m2286 -5 c-6 -6 -58 8 -58 16 0 4 14 3 31 -3 16 -6 29 -12
27 -13z m-33 -24 c-3 -6 -11 -11 -16 -11 -5 0 -4 6 3 14 14 16 24 13 13 -3z
m30 -21 c-3 -5 -1 -10 6 -10 7 0 10 -3 6 -6 -9 -9 -28 6 -22 17 4 5 8 9 11 9
3 0 2 -4 -1 -10z m-2202 -34 c4 -10 1 -13 -8 -9 -8 3 -12 9 -9 14 7 12 11 11
17 -5z m1584 -209 c17 -18 36 -50 43 -72 7 -22 25 -57 42 -77 20 -27 25 -38
14 -38 -20 0 -30 -18 -33 -60 -6 -97 -21 -168 -44 -202 -13 -20 -29 -37 -36
-38 -15 0 -5 37 13 44 21 8 17 26 -6 26 -10 0 -24 9 -30 19 -5 11 -22 21 -37
23 -16 2 -28 9 -29 18 0 8 -3 29 -7 45 -3 17 -9 75 -12 130 -6 94 -4 108 29
225 20 69 39 132 43 140 4 8 10 -22 14 -68 6 -74 10 -87 36 -115z m458 184 c3
-5 1 -12 -4 -15 -5 -3 -11 1 -15 9 -6 16 9 21 19 6z m-2002 -21 c9 -11 13 -20
9 -20 -4 0 -15 9 -25 20 -9 11 -13 20 -9 20 4 0 15 -9 25 -20z m-1496 -42 c-3
-8 -6 -5 -6 6 -1 11 2 17 5 13 3 -3 4 -12 1 -19z m-47 -33 c-19 -23 -29 -18
-17 9 7 15 16 21 21 16 6 -6 4 -15 -4 -25z m1611 -13 c7 -15 15 -30 17 -34 2
-5 -1 -8 -7 -8 -6 0 -13 11 -17 25 -3 14 -10 25 -14 25 -4 0 -10 7 -13 14 -10
26 19 7 34 -22z m2040 -81 c-12 -7 -11 -10 5 -14 10 -2 7 -3 -8 -2 -15 1 -29
-3 -31 -8 -1 -5 -9 -1 -17 9 -9 10 -10 15 -3 10 7 -4 21 -2 30 3 22 13 44 14
24 2z m67 -16 c-3 -3 -9 2 -12 12 -6 14 -5 15 5 6 7 -7 10 -15 7 -18z m-174
-11 c3 -8 2 -12 -4 -9 -6 3 -10 10 -10 16 0 14 7 11 14 -7z m-1834 -34 c-8 -6
-11 -10 -7 -10 4 0 3 -9 -3 -20 -9 -16 -8 -20 6 -20 17 0 17 2 -7 -146 -13
-79 -18 -86 -57 -78 -37 8 -37 4 -13 119 11 49 17 93 14 97 -2 5 2 8 9 8 10 0
12 -11 10 -40 -3 -31 -1 -40 11 -40 22 0 33 57 14 78 -8 9 -17 28 -21 42 -3
14 -3 19 0 13 4 -10 10 -10 27 2 11 8 23 12 26 9 3 -3 -1 -9 -9 -14z m2320
-99 c0 -11 -5 -23 -12 -27 -7 -5 -9 0 -6 14 4 14 1 22 -11 25 -11 3 -9 5 7 6
16 1 22 -5 22 -18z m30 -15 c0 -8 -4 -18 -10 -21 -5 -3 -10 3 -10 14 0 12 5
21 10 21 6 0 10 -6 10 -14z m-217 -57 c-4 -15 -8 -17 -14 -8 -6 11 4 28 18 29
0 0 -1 -9 -4 -21z m237 0 c0 -11 -10 -34 -21 -51 -17 -23 -24 -27 -30 -16 -12
18 -11 41 1 33 6 -3 10 -1 10 4 0 6 -4 11 -10 11 -5 0 -10 7 -10 15 0 8 5 15
10 15 6 0 10 -4 10 -10 0 -5 5 -10 10 -10 6 0 9 3 9 8 -3 14 1 22 11 22 6 0
10 -9 10 -21z m-240 -39 c0 -5 -4 -10 -10 -10 -5 0 -10 5 -10 10 0 6 5 10 10
10 6 0 10 -4 10 -10z m-185 -26 c-8 -9 -13 -19 -10 -24 8 -13 -8 -18 -30 -9
-19 8 -19 8 2 15 13 3 20 11 17 16 -7 12 16 29 28 22 5 -3 1 -12 -7 -20z m125
14 c0 -7 -7 -21 -15 -32 -13 -18 -14 -18 -12 3 1 11 5 21 10 21 4 0 5 5 2 10
-3 6 -1 10 4 10 6 0 11 -6 11 -12z m30 -2 c0 -3 -4 -8 -10 -11 -5 -3 -10 -1
-10 4 0 6 5 11 10 11 6 0 10 -2 10 -4z m200 -11 c0 -12 -14 -35 -21 -35 -4 0
-6 7 -2 16 4 12 2 15 -8 12 -8 -3 -13 -14 -11 -24 2 -16 1 -17 -7 -4 -9 13
-11 12 -11 -4 0 -12 -5 -16 -16 -12 -20 7 -41 -3 -25 -13 6 -4 2 -12 -10 -20
-18 -10 -20 -10 -17 1 3 7 -4 19 -16 26 -20 13 -20 13 -1 9 11 -2 42 11 70 28
41 27 75 36 75 20z m-270 -31 c0 -8 -4 -13 -9 -9 -5 3 -12 1 -16 -5 -3 -6 -19
-9 -35 -8 -16 1 -26 6 -23 11 3 5 14 7 24 4 11 -3 19 -1 19 3 0 5 8 11 18 13
9 3 18 5 20 6 1 0 2 -6 2 -15z m60 -64 c0 -5 -4 -10 -10 -10 -5 0 -10 5 -10
10 0 6 5 10 10 10 6 0 10 -4 10 -10z m320 -150 c0 -4 11 -5 25 -2 14 2 25 8
25 13 0 5 9 4 20 -3 11 -7 20 -22 20 -34 0 -17 -5 -21 -27 -17 -16 2 -41 4
-58 4 -26 1 -30 5 -30 29 0 18 4 26 13 23 6 -3 12 -9 12 -13z m-18 -85 c-9
-32 -26 -36 -30 -6 -2 15 0 21 7 17 6 -4 11 -2 11 3 0 6 4 11 9 11 5 0 6 -11
3 -25z m-245 -21 c-3 -3 -12 -4 -19 -1 -8 3 -5 6 6 6 11 1 17 -2 13 -5z
m-1592 -84 c-3 -5 -14 -10 -23 -10 -15 0 -15 2 -2 10 20 13 33 13 25 0z m75
-14 c0 -2 -11 -6 -25 -8 -13 -3 -22 -1 -19 3 5 9 44 13 44 5z m-130 -90 c0 -3
-4 -8 -10 -11 -5 -3 -10 -1 -10 4 0 6 5 11 10 11 6 0 10 -2 10 -4z m-1053 -32
c-3 -3 -12 -4 -19 -1 -8 3 -5 6 6 6 11 1 17 -2 13 -5z m1153 -15 c0 -6 -4 -7
-10 -4 -5 3 -10 11 -10 16 0 6 5 7 10 4 6 -3 10 -11 10 -16z m361 -160 c-5
-13 -10 -19 -10 -12 -1 15 10 45 15 40 3 -2 0 -15 -5 -28z m54 -17 c-3 -3 -11
0 -18 7 -9 10 -8 11 6 5 10 -3 15 -9 12 -12z m-1805 -2 c0 -5 -5 -10 -11 -10
-5 0 -7 5 -4 10 3 6 8 10 11 10 2 0 4 -4 4 -10z m1210 -10 c0 -5 -4 -10 -10
-10 -5 0 -10 5 -10 10 0 6 5 10 10 10 6 0 10 -4 10 -10z m570 -20 c0 -5 -5
-10 -11 -10 -5 0 -7 5 -4 10 3 6 8 10 11 10 2 0 4 -4 4 -10z m-540 -24 c0 -3
-4 -8 -10 -11 -5 -3 -10 -1 -10 4 0 6 5 11 10 11 6 0 10 -2 10 -4z m-70 -26
c0 -5 -5 -10 -11 -10 -5 0 -7 5 -4 10 3 6 8 10 11 10 2 0 4 -4 4 -10z m575
-28 c-3 -3 -11 0 -18 7 -9 10 -8 11 6 5 10 -3 15 -9 12 -12z m955 -9 c0 9 7
17 15 17 10 0 15 -11 15 -35 0 -29 4 -35 21 -35 18 0 20 -4 15 -25 -5 -18 -2
-25 7 -25 8 0 22 -10 33 -22 10 -12 13 -18 7 -14 -7 4 -13 3 -13 -3 0 -5 6
-12 13 -14 7 -3 4 -6 -7 -6 -13 -1 -17 -7 -13 -20 3 -15 0 -17 -16 -13 -17 4
-19 2 -14 -19 5 -22 5 -22 -7 -6 -14 18 -32 24 -21 7 3 -5 1 -10 -4 -10 -6 0
-11 3 -11 8 0 4 -11 20 -25 35 -15 16 -21 27 -13 27 8 1 7 5 -5 14 -10 8 -15
20 -11 30 3 9 1 16 -5 16 -6 0 -11 9 -11 20 0 11 -5 20 -11 20 -5 0 -8 3 -6 8
9 14 -13 53 -25 46 -9 -5 -10 -4 -3 4 19 20 69 19 82 -3 11 -18 12 -18 13 -2z
m-2657 3 c4 -10 1 -13 -9 -9 -15 6 -19 23 -5 23 5 0 11 -7 14 -14z m1197 4 c0
-5 -4 -10 -10 -10 -5 0 -10 5 -10 10 0 6 5 10 10 10 6 0 10 -4 10 -10z m-1320
-16 c0 -2 -7 -4 -15 -4 -8 0 -15 4 -15 10 0 5 7 7 15 4 8 -4 15 -8 15 -10z
m155 -38 c1 -14 -5 -22 -15 -21 -25 2 -40 15 -33 30 7 20 23 19 23 -1 0 -8 4
-13 10 -9 5 3 6 13 3 23 -4 10 -2 14 3 9 5 -5 9 -19 9 -31z m-260 14 c3 -5 1
-10 -4 -10 -6 0 -11 5 -11 10 0 6 2 10 4 10 3 0 8 -4 11 -10z m2960 0 c3 -5 1
-10 -4 -10 -6 0 -11 5 -11 10 0 6 2 10 4 10 3 0 8 -4 11 -10z m-2785 -14 c0
-3 -4 -8 -10 -11 -5 -3 -10 -1 -10 4 0 6 5 11 10 11 6 0 10 -2 10 -4z m-203
-38 c-3 -8 -6 -5 -6 6 -1 11 2 17 5 13 3 -3 4 -12 1 -19z m65 8 c7 5 8 2 4 -5
-5 -7 -14 -10 -22 -7 -8 3 -14 0 -14 -6 0 -6 -3 -8 -6 -5 -4 4 -1 14 7 23 8
10 15 12 17 5 2 -6 9 -8 14 -5z m228 -25 c0 -3 -16 -6 -35 -7 -19 0 -32 3 -29
7 5 9 64 9 64 0z m70 0 c0 -5 -7 -12 -16 -15 -14 -5 -15 -4 -4 9 14 17 20 19
20 6z m-973 -43 c-3 -7 -5 -2 -5 12 0 14 2 19 5 13 2 -7 2 -19 0 -25z m957 -4
c3 -8 2 -12 -4 -9 -6 3 -10 -1 -10 -10 0 -15 -2 -15 -15 -1 -8 8 -15 17 -15
20 0 3 7 3 15 0 8 -4 15 -1 15 5 0 16 7 14 14 -5z m1334 -14 c-7 -10 -14 -17
-17 -15 -4 4 18 35 25 35 2 0 -1 -9 -8 -20z m-278 0 c0 -5 -2 -10 -4 -10 -3 0
-8 5 -11 10 -3 6 -1 10 4 10 6 0 11 -4 11 -10z m297 -22 c-3 -8 -6 -5 -6 6 -1
11 2 17 5 13 3 -3 4 -12 1 -19z m-1397 -18 c0 -5 -4 -10 -10 -10 -5 0 -10 5
-10 10 0 6 5 10 10 10 6 0 10 -4 10 -10z m-40 -37 c0 -2 -10 -1 -22 1 -13 3
-27 5 -31 5 -4 1 -2 7 5 14 10 11 15 11 30 -2 10 -8 18 -17 18 -18z m1447 15
c-3 -8 -6 -5 -6 6 -1 11 2 17 5 13 3 -3 4 -12 1 -19z m-1247 -12 c0 -2 -7 -7
-16 -10 -8 -3 -12 -2 -9 4 6 10 25 14 25 6z m920 -6 c0 -5 -5 -10 -11 -10 -5
0 -7 5 -4 10 3 6 8 10 11 10 2 0 4 -4 4 -10z m-1192 -26 c-14 -14 -16 -14 -21
0 -4 10 -1 13 9 9 7 -3 14 1 14 8 0 7 3 9 7 5 4 -3 0 -13 -9 -22z m-78 2 c0
-3 -4 -8 -10 -11 -5 -3 -10 -1 -10 4 0 6 5 11 10 11 6 0 10 -2 10 -4z m40 0
c0 -3 -4 -8 -10 -11 -5 -3 -10 -1 -10 4 0 6 5 11 10 11 6 0 10 -2 10 -4z m103
-27 c3 -11 0 -16 -8 -12 -19 7 -26 30 -10 30 8 0 16 -8 18 -18z m1482 1 c10
-11 16 -20 13 -20 -3 0 -13 9 -23 20 -10 11 -16 20 -13 20 3 0 13 -9 23 -20z
m-1252 -54 c22 18 22 18 4 -1 -9 -11 -31 -20 -48 -21 -27 -2 -28 0 -12 12 17
13 17 13 0 14 -11 0 -15 4 -11 12 5 8 13 4 26 -12 18 -22 19 -22 41 -4z m787
-15 c0 -2 -3 -1 -7 2 -3 4 -12 2 -19 -4 -8 -7 -14 -7 -19 1 -3 5 -2 10 4 10 6
0 8 7 4 16 -5 14 -3 13 15 -2 12 -10 22 -20 22 -23z m-926 3 c3 -8 2 -12 -4
-9 -6 3 -10 10 -10 16 0 14 7 11 14 -7z m1878 -8 c3 -16 -1 -21 -19 -22 -13
-1 -23 2 -23 7 0 5 6 9 13 10 9 0 9 2 -1 6 -15 6 -8 20 12 20 8 0 16 -10 18
-21z m-1065 -14 c-10 -10 -17 -23 -17 -29 0 -5 -9 -18 -20 -28 -20 -18 -20
-18 -3 16 20 40 34 58 47 59 5 0 2 -8 -7 -18z m-627 -23 c0 -5 -4 -9 -10 -9
-5 0 -10 5 -10 10 0 7 -7 7 -21 -1 -16 -8 -24 -8 -33 2 -8 9 -7 11 5 6 9 -3
22 -1 29 3 15 9 40 2 40 -11z m763 4 c-29 -20 -29 -33 -1 -33 20 0 21 -1 3
-20 -10 -11 -23 -20 -29 -20 -6 0 -4 5 4 10 12 7 12 12 2 22 -6 6 -12 8 -12 2
0 -14 -39 -12 -44 2 -3 7 2 15 10 18 8 3 14 1 14 -4 0 -6 4 -10 10 -10 5 0 6
7 3 17 -4 10 -2 14 4 10 6 -4 16 0 23 8 7 8 18 15 24 14 6 0 1 -7 -11 -16z
m851 2 c-5 -11 1 -15 19 -15 14 0 29 -4 32 -10 3 -5 1 -10 -5 -10 -6 0 -8 -5
-4 -12 4 -7 -6 -2 -23 10 -17 12 -33 19 -37 15 -3 -3 -6 -2 -6 3 0 9 20 34 27
34 1 0 0 -7 -3 -15z m-957 -2 c-9 -2 -14 -9 -11 -15 4 -6 1 -9 -6 -6 -27 9
-22 28 7 27 17 -1 21 -3 10 -6z m-687 -29 c0 -8 -5 -12 -10 -9 -6 4 -8 11 -5
16 9 14 15 11 15 -7z m40 -14 c0 -5 -9 -14 -19 -19 -16 -9 -18 -8 -14 9 5 20
33 29 33 10z m620 -15 c10 -26 24 -32 35 -15 3 6 0 10 -8 10 -7 0 -14 7 -14
15 0 11 10 6 32 -15 17 -17 34 -27 38 -24 4 4 7 2 7 -5 0 -8 -7 -10 -21 -6
-13 5 -19 3 -15 -3 3 -5 -1 -15 -9 -22 -13 -11 -14 -10 -10 3 4 8 1 18 -5 22
-6 3 -10 3 -9 -2 3 -13 -12 -43 -22 -43 -4 0 -5 8 -2 18 6 16 6 16 -10 0 -10
-9 -16 -23 -15 -30 2 -7 -4 -13 -12 -14 -8 0 -30 -4 -48 -8 -40 -9 -37 -32 4
-28 l29 2 -30 -13 c-27 -12 -31 -12 -37 5 -4 10 -12 18 -18 18 -6 0 -4 7 4 16
18 17 21 28 7 19 -6 -3 -9 4 -8 15 1 11 6 20 12 20 5 0 1 7 -9 15 -28 21 -17
26 58 28 62 1 79 8 56 22 -6 4 -8 11 -5 16 9 14 15 11 25 -16z m990 4 c0 -14
-17 -10 -23 5 -4 10 -1 13 9 9 7 -3 14 -9 14 -14z m-20 -19 l25 -11 -25 6
c-14 2 -38 5 -53 5 -17 0 -26 4 -22 10 4 6 10 8 15 5 5 -3 12 0 16 6 4 8 9 8
13 1 4 -6 18 -16 31 -22z m-544 11 c-3 -5 1 -11 8 -14 9 -4 14 -17 12 -34 -1
-15 2 -34 7 -40 6 -9 6 -13 -2 -13 -6 0 -11 -10 -12 -22 0 -13 -3 -17 -6 -10
-2 6 -9 12 -15 12 -6 0 -8 -6 -5 -13 3 -8 -3 -13 -14 -13 -27 0 -24 13 9 34
28 17 42 62 19 62 -8 0 -7 4 3 10 13 8 13 10 -2 10 -10 0 -15 7 -13 18 5 23 4
22 11 22 3 0 3 -4 0 -9z m630 -14 c4 -4 0 -7 -9 -7 -9 0 -18 4 -21 9 -7 10 20
9 30 -2z m-1741 -8 c4 -6 14 -8 22 -5 8 4 11 1 8 -5 -4 -6 -13 -8 -20 -5 -8 3
-15 0 -18 -7 -2 -6 -6 -1 -9 11 -6 23 6 30 17 11z m375 3 c0 -4 -9 -8 -20 -9
-11 -1 -20 2 -20 8 0 5 9 9 20 9 11 0 20 -4 20 -8z m55 -12 c-3 -5 -12 -10
-18 -10 -7 0 -6 4 3 10 19 12 23 12 15 0z m1199 1 c4 -5 -3 -7 -14 -4 -23 6
-26 13 -6 13 8 0 17 -4 20 -9z m86 -6 c0 -12 -19 -12 -23 0 -4 9 -1 12 9 8 7
-3 14 -7 14 -8z m-1403 -1 c-3 -3 -12 -4 -19 -1 -8 3 -5 6 6 6 11 1 17 -2 13
-5z m210 -17 c11 4 14 3 9 -5 -4 -7 -2 -12 4 -12 6 0 8 -5 5 -10 -4 -6 -12 -4
-21 5 -9 8 -20 15 -26 15 -6 0 1 -9 16 -21 20 -16 25 -26 20 -45 -5 -19 -3
-23 10 -18 22 8 20 1 -4 -21 -20 -18 -21 -18 -14 1 7 17 6 17 -9 5 -19 -15
-23 -1 -5 17 9 9 9 12 -1 12 -9 0 -11 8 -8 21 5 17 2 20 -13 16 -11 -3 -25 1
-31 9 -10 12 -9 13 5 8 12 -5 16 0 16 21 0 24 2 25 15 11 9 -8 23 -12 32 -9z
m-112 -17 c3 -5 1 -10 -4 -10 -6 0 -11 5 -11 10 0 6 2 10 4 10 3 0 8 -4 11
-10z m758 -4 c4 -10 1 -13 -8 -9 -8 3 -12 9 -9 14 7 12 11 11 17 -5z m-1018
-6 c5 -8 11 -7 21 1 10 8 14 8 14 0 0 -6 -4 -11 -10 -11 -5 0 -7 -8 -3 -17 3
-10 3 -15 -2 -11 -4 4 -14 3 -22 -3 -9 -9 -13 -8 -13 0 0 6 5 11 10 11 6 0 10
5 10 11 0 7 -10 9 -24 5 -14 -3 -28 -1 -32 6 -4 6 -3 8 4 4 6 -3 13 -2 17 4 8
13 22 13 30 0z m190 -10 c3 -5 1 -10 -4 -10 -6 0 -11 5 -11 10 0 6 2 10 4 10
3 0 8 -4 11 -10z m120 -12 c37 -16 31 -24 -19 -23 -41 0 -43 1 -28 17 21 21
16 20 47 6z m-354 -15 c13 -16 12 -17 -3 -4 -17 13 -22 21 -14 21 2 0 10 -8
17 -17z m1574 7 c-3 -5 -14 -10 -23 -9 -14 0 -13 2 3 9 27 11 27 11 20 0z
m-1830 -10 c3 -6 -1 -7 -9 -4 -18 7 -21 14 -7 14 6 0 13 -4 16 -10z m382 -22
c-3 -7 -5 -2 -5 12 0 14 2 19 5 13 2 -7 2 -19 0 -25z m50 -10 c-3 -7 -5 -2 -5
12 0 14 2 19 5 13 2 -7 2 -19 0 -25z m73 16 c0 -2 -7 -4 -15 -4 -8 0 -15 4
-15 10 0 5 7 7 15 4 8 -4 15 -8 15 -10z m-258 -29 c3 -14 1 -25 -3 -25 -5 0
-9 11 -9 25 0 14 2 25 4 25 2 0 6 -11 8 -25z m358 14 c0 -5 8 -6 18 -2 12 4
14 3 6 -6 -8 -8 -20 -8 -50 3 l-39 14 33 -1 c17 0 32 -4 32 -8z m595 1 c3 -6
-1 -7 -9 -4 -18 7 -21 14 -7 14 6 0 13 -4 16 -10z m-872 -23 c4 3 7 1 7 -5 0
-18 -27 -14 -34 4 -5 13 -4 14 7 6 8 -7 17 -9 20 -5z m221 5 c3 -5 -1 -9 -9
-9 -8 0 -12 4 -9 9 3 4 7 8 9 8 2 0 6 -4 9 -8z m-118 -68 c-3 -8 -11 -14 -18
-13 -10 0 -10 2 0 6 6 2 12 9 12 14 0 4 -7 6 -15 3 -11 -5 -13 -2 -9 10 3 9
10 16 15 16 5 0 8 3 8 8 -1 4 0 12 1 17 2 6 5 -3 7 -18 3 -16 2 -35 -1 -43z
m-69 50 c-3 -4 -2 -16 4 -26 9 -16 8 -19 -3 -16 -17 6 -23 48 -7 48 7 0 9 -3
6 -6z m124 -8 c5 3 9 1 9 -4 0 -21 -26 -19 -27 2 0 11 1 15 4 8 3 -6 9 -10 14
-6z m139 10 c0 -11 -19 -15 -25 -6 -3 5 1 10 9 10 9 0 16 -2 16 -4z m94 -11
c-4 -8 -11 -15 -16 -15 -6 0 -5 6 2 15 7 8 14 15 16 15 2 0 1 -7 -2 -15z
m-474 -14 c0 -3 -11 -7 -25 -7 -20 -2 -23 1 -15 11 11 13 40 10 40 -4z m330 9
c0 -5 -4 -10 -10 -10 -5 0 -10 5 -10 10 0 6 5 10 10 10 6 0 10 -4 10 -10z
m578 -16 c-13 -12 -26 -20 -29 -18 -4 2 -9 -2 -12 -9 -3 -8 3 -13 14 -13 11 0
19 6 19 13 0 7 5 13 10 13 6 0 10 -10 10 -21 0 -18 2 -19 15 -9 8 7 15 8 15 4
0 -5 -9 -15 -21 -22 -15 -10 -19 -10 -14 -1 6 8 -1 10 -24 7 -22 -3 -36 1 -48
14 -16 18 -16 18 0 12 12 -4 17 -1 17 10 0 9 7 16 15 16 8 0 15 6 15 13 0 7 9
13 20 13 19 0 19 -1 -2 -22z m-1048 6 c0 -5 -5 -10 -11 -10 -5 0 -7 5 -4 10 3
6 8 10 11 10 2 0 4 -4 4 -10z m435 -8 c-3 -3 -11 0 -18 7 -9 10 -8 11 6 5 10
-3 15 -9 12 -12z m122 -4 c-3 -8 -6 -5 -6 6 -1 11 2 17 5 13 3 -3 4 -12 1 -19z
m575 -10 c-7 -7 -12 -8 -12 -2 0 14 12 26 19 19 2 -3 -1 -11 -7 -17z m-892 3
c0 -5 -11 -11 -25 -13 -20 -4 -23 -3 -14 8 13 16 39 19 39 5z m265 -1 c-3 -5
-11 -10 -16 -10 -6 0 -7 5 -4 10 3 6 11 10 16 10 6 0 7 -4 4 -10z m-345 -22
c-15 -5 -27 -5 -34 2 -8 8 -6 9 5 5 10 -4 20 -1 24 4 3 6 11 8 17 5 7 -5 2
-11 -12 -16z m440 19 c0 -2 -10 -12 -21 -23 -22 -19 -22 -19 -10 4 10 18 31
31 31 19z m67 -4 c-4 -3 -19 -8 -34 -9 -21 -2 -24 -1 -13 6 17 11 57 14 47 3z
m-292 -69 c-4 -41 -14 -74 -24 -74 -4 0 -6 17 -4 38 3 20 6 51 8 67 5 42 5 42
14 20 4 -11 7 -34 6 -51z m95 24 c0 -12 -28 3 -34 18 -4 11 -2 12 14 1 11 -6
20 -15 20 -19z m-256 -10 c-3 -4 7 -8 21 -8 14 0 24 -4 20 -9 -6 -10 -62 -7
-73 4 -4 3 0 10 8 15 8 6 11 10 7 10 -5 0 -5 5 -1 11 4 8 9 7 15 -2 4 -7 5
-17 3 -21z m446 28 c0 -2 -11 -6 -25 -8 -13 -3 -22 -1 -19 3 5 9 44 13 44 5z
m-350 -15 c0 -6 -4 -13 -10 -16 -5 -3 -10 1 -10 9 0 9 5 16 10 16 6 0 10 -4
10 -9z m290 -12 c0 -6 -4 -7 -10 -4 -5 3 -10 11 -10 16 0 6 5 7 10 4 6 -3 10
-11 10 -16z m440 2 c0 -5 -9 -11 -21 -14 -16 -4 -18 -3 -8 9 13 16 29 19 29 5z
m-54 -23 c-1 -13 1 -33 5 -45 6 -17 4 -21 -10 -20 -10 0 -23 7 -31 15 -11 12
-10 13 9 7 12 -4 21 -2 21 4 0 6 -4 11 -9 11 -17 0 -3 47 15 50 1 0 0 -10 0
-22z m-488 -35 c-11 -14 -10 -15 12 -8 20 6 23 5 15 -7 -6 -7 -2 -5 8 5 17 19
17 19 18 -4 0 -13 3 -18 6 -11 2 6 9 12 14 12 4 0 6 -7 2 -16 -3 -9 -13 -14
-24 -11 -10 3 -26 -2 -36 -10 -17 -14 -17 -14 -1 -9 10 3 28 1 40 -5 21 -9 21
-9 2 -6 -12 3 -29 0 -38 -5 -15 -9 -21 0 -17 26 1 4 -6 14 -15 20 -14 11 -14
13 0 25 21 18 20 32 -1 25 -15 -5 -15 -3 2 11 18 15 20 15 23 0 2 -9 -2 -23
-10 -32z m61 30 c0 -10 -3 -13 -5 -6 -3 7 -12 9 -21 6 -11 -4 -14 -2 -9 5 11
18 36 14 35 -5z m-114 -4 c10 -16 -3 -23 -18 -11 -8 7 -18 8 -22 4 -5 -4 -5
-1 -1 6 9 15 32 16 41 1z m165 -16 c0 -3 -3 -3 -7 0 -3 4 -12 2 -19 -4 -10 -8
-13 -6 -11 9 1 16 5 19 19 11 10 -5 18 -13 18 -16z m-308 -28 c-2 -14 -7 -23
-11 -21 -3 2 -7 -16 -8 -41 -2 -51 -4 -56 -25 -48 -12 5 -13 14 -7 43 17 79
22 92 31 92 5 0 6 6 2 13 -6 9 -5 9 8 -1 9 -7 13 -22 10 -37z m-127 25 c-3 -5
-12 -10 -18 -10 -7 0 -6 4 3 10 19 12 23 12 15 0z m847 -4 c7 4 8 2 4 -4 -11
-18 -26 -14 -25 6 0 10 3 12 6 4 2 -6 10 -9 15 -6z m-68 -38 c12 -10 29 -16
39 -14 15 4 16 2 6 -10 -10 -13 -14 -12 -29 1 -17 15 -18 15 -16 -2 0 -11 -6
-17 -19 -17 -11 0 -22 -4 -25 -8 -3 -4 -12 -3 -19 1 -11 7 -11 13 3 32 13 19
16 20 16 6 0 -19 15 -23 25 -6 4 5 -3 18 -14 29 -16 13 -18 19 -9 23 7 2 15
-1 17 -7 2 -6 14 -18 25 -28z m106 33 c0 -5 -7 -11 -14 -14 -10 -4 -13 -1 -9
9 6 15 23 19 23 5z m-600 -22 c0 -6 -4 -7 -10 -4 -5 3 -10 11 -10 16 0 6 5 7
10 4 6 -3 10 -11 10 -16z m-30 1 c0 -13 -11 -13 -30 0 -12 8 -11 10 8 10 12 0
22 -4 22 -10z m-200 -10 c0 -5 -8 -10 -17 -10 -15 0 -16 2 -3 10 19 12 20 12
20 0z m87 -32 c-3 -8 -6 -5 -6 6 -1 11 2 17 5 13 3 -3 4 -12 1 -19z m48 12
c-3 -5 -10 -10 -16 -10 -5 0 -9 5 -9 10 0 6 7 10 16 10 8 0 12 -4 9 -10z m105
0 c0 -5 -5 -10 -11 -10 -5 0 -7 5 -4 10 3 6 8 10 11 10 2 0 4 -4 4 -10z m400
-19 c0 -20 25 -35 41 -25 6 3 16 0 24 -6 8 -7 22 -10 30 -6 9 3 13 2 10 -4 -3
-6 -15 -10 -25 -10 -10 0 -25 -9 -33 -20 -8 -11 -17 -17 -20 -13 -4 3 -7 1 -7
-6 0 -8 -8 -11 -20 -8 -11 3 -20 1 -20 -3 0 -5 8 -11 18 -13 11 -3 7 -7 -15
-12 -36 -8 -43 -21 -15 -28 13 -4 11 -5 -5 -6 -13 0 -23 3 -23 8 0 5 -7 11
-14 14 -11 4 -13 1 -9 -11 6 -15 5 -15 -10 -3 -16 13 -16 15 5 35 13 12 32 28
42 36 19 15 19 14 1 -13 -14 -23 -15 -26 -2 -21 8 3 18 12 21 20 3 9 9 13 14
11 4 -3 18 1 32 9 25 13 25 13 -15 15 -22 1 -46 1 -52 0 -21 -3 -15 24 10 45
l22 19 -19 -22 c-11 -13 -15 -24 -10 -24 54 -7 67 -7 57 -1 -16 10 -35 62 -23
62 6 0 10 -9 10 -19z m-805 -1 c-3 -5 -12 -10 -18 -10 -7 0 -6 4 3 10 19 12
23 12 15 0z m300 -30 c0 -23 -4 -29 -15 -25 -12 5 -13 4 -2 -6 18 -19 15 -28
-7 -22 -12 3 -17 11 -14 19 3 8 0 14 -6 14 -6 0 -11 -3 -12 -7 -2 -24 -10 -58
-15 -62 -6 -7 6 90 13 102 3 5 11 6 17 4 9 -4 41 7 41 13 0 0 0 -14 0 -30z
m55 16 c0 -2 -7 -7 -16 -10 -8 -3 -12 -2 -9 4 6 10 25 14 25 6z m-197 -26 c-3
-12 -8 -19 -11 -16 -5 6 5 36 12 36 2 0 2 -9 -1 -20z m2204 14 c-3 -3 -12 -4
-19 -1 -8 3 -5 6 6 6 11 1 17 -2 13 -5z m-1992 -27 c6 -5 3 -7 -8 -3 -13 4
-20 -2 -27 -20 -6 -14 -7 -30 -4 -36 4 -7 2 -8 -5 -4 -6 4 -10 18 -8 31 3 27
27 59 36 48 3 -4 11 -12 16 -16z m310 -57 c-3 -5 -11 -10 -16 -10 -6 0 -7 5
-4 10 3 6 11 10 16 10 6 0 7 -4 4 -10z m-395 -30 c0 -5 -2 -10 -4 -10 -3 0 -8
5 -11 10 -3 6 -1 10 4 10 6 0 11 -4 11 -10z m393 -20 c-6 -22 -18 -26 -28 -10
-3 6 -1 10 5 10 6 0 8 5 5 10 -3 6 0 10 8 10 10 0 13 -7 10 -20z m-54 -9 c20
-18 21 -20 4 -20 -10 0 -33 -2 -51 -5 -28 -4 -31 -3 -18 9 8 9 22 12 32 8 13
-5 16 -3 11 10 -8 22 -5 21 22 -2z m121 -5 c0 -3 -4 -8 -10 -11 -5 -3 -10 -1
-10 4 0 6 5 11 10 11 6 0 10 -2 10 -4z m-70 -36 c0 -5 -5 -10 -11 -10 -5 0 -7
5 -4 10 3 6 8 10 11 10 2 0 4 -4 4 -10z m837 -22 c-3 -8 -6 -5 -6 6 -1 11 2
17 5 13 3 -3 4 -12 1 -19z"/>
<path d="M2379 5203 c-13 -16 -12 -17 4 -4 9 7 17 15 17 17 0 8 -8 3 -21 -13z"/>
<path d="M4580 5150 c-8 -5 -12 -11 -9 -14 2 -3 11 -1 19 4 8 5 12 11 9 14 -2
3 -11 1 -19 -4z"/>
<path d="M4610 5146 c0 -23 16 -27 17 -5 1 10 -2 19 -8 19 -5 0 -9 -6 -9 -14z"/>
<path d="M4530 4950 c0 -11 4 -20 9 -20 5 0 7 9 4 20 -3 11 -7 20 -9 20 -2 0
-4 -9 -4 -20z"/>
<path d="M4470 4916 c0 -8 4 -18 10 -21 6 -4 7 1 4 12 -4 14 -2 13 14 -4 11
-13 23 -23 27 -23 9 0 1 34 -10 42 -17 13 -45 9 -45 -6z"/>
<path d="M4441 4902 c-6 -12 -7 -22 -2 -22 5 0 7 -9 4 -20 -3 -12 0 -20 6 -20
7 0 9 5 6 10 -4 6 -2 16 3 23 5 7 6 21 2 32 -7 19 -7 19 -19 -3z"/>
<path d="M3400 4310 c0 -5 4 -10 9 -10 6 0 13 5 16 10 3 6 -1 10 -9 10 -9 0
-16 -4 -16 -10z"/>
<path d="M3700 4105 c0 -5 5 -17 10 -25 5 -8 10 -10 10 -5 0 6 -5 17 -10 25
-5 8 -10 11 -10 5z"/>
<path d="M3783 4028 c0 -7 -4 -22 -8 -33 -6 -14 -5 -17 2 -10 15 14 26 55 15
55 -5 0 -9 -6 -9 -12z"/>
<path d="M4040 3913 c8 -3 19 -11 23 -17 6 -7 7 -6 4 4 -2 8 -12 16 -23 17
-13 2 -15 1 -4 -4z"/>
<path d="M3440 3881 c0 -12 5 -21 10 -21 6 0 10 6 10 14 0 8 -4 18 -10 21 -5
3 -10 -3 -10 -14z"/>
<path d="M3628 3863 c7 -3 16 -2 19 1 4 3 -2 6 -13 5 -11 0 -14 -3 -6 -6z"/>
<path d="M3668 3846 c-10 -7 -18 -17 -18 -21 0 -5 8 -1 18 7 9 9 24 18 32 21
13 5 13 5 0 6 -8 0 -23 -6 -32 -13z"/>
<path d="M4026 3748 c-9 -35 -8 -38 13 -38 20 0 37 32 26 50 -11 18 -32 11
-39 -12z"/>
<path d="M4595 4560 c3 -5 11 -10 16 -10 6 0 7 5 4 10 -3 6 -11 10 -16 10 -6
0 -7 -4 -4 -10z"/>
<path d="M4624 4546 c-5 -12 -10 -13 -26 -5 -15 8 -19 8 -14 0 4 -6 2 -11 -4
-11 -6 0 -8 -5 -5 -10 3 -6 18 -8 33 -4 l27 5 -25 -15 c-15 -9 -19 -15 -10
-15 22 -1 36 11 42 36 7 26 -9 42 -18 19z"/>
<path d="M4650 4526 c0 -9 8 -12 25 -8 14 2 25 7 25 11 0 4 -11 8 -25 9 -15 1
-25 -3 -25 -12z"/>
<path d="M4535 4490 c-3 -5 1 -10 10 -10 9 0 13 5 10 10 -3 6 -8 10 -10 10 -2
0 -7 -4 -10 -10z"/>
<path d="M5382 4600 c0 -14 2 -19 5 -12 2 6 2 18 0 25 -3 6 -5 1 -5 -13z"/>
<path d="M5795 4250 c-3 -5 -1 -10 4 -10 6 0 11 5 11 10 0 6 -2 10 -4 10 -3 0
-8 -4 -11 -10z"/>
<path d="M5777 4215 c-4 -8 -2 -17 3 -20 6 -4 10 3 10 14 0 25 -6 27 -13 6z"/>
<path d="M5617 4233 c-4 -3 -7 -11 -7 -17 0 -6 5 -5 12 2 6 6 9 14 7 17 -3 3
-9 2 -12 -2z"/>
<path d="M3340 3567 c0 -19 24 -112 38 -147 7 -16 44 -46 101 -80 50 -30 89
-60 87 -66 -2 -6 13 -19 35 -28 27 -12 41 -26 46 -44 6 -24 7 -25 14 -7 4 11
8 14 8 8 1 -22 4 -27 31 -57 14 -15 42 -35 62 -43 21 -8 35 -19 32 -24 -3 -5
0 -9 6 -9 6 0 9 -4 6 -9 -6 -9 16 -21 39 -21 19 0 27 28 14 53 -14 27 -36 47
-74 69 -17 9 -35 27 -42 40 -7 13 -39 50 -73 82 -33 32 -60 61 -60 65 0 5 -7
14 -15 21 -8 7 -13 16 -10 19 2 4 -12 16 -33 25 -32 16 -54 31 -136 96 -10 8
-32 28 -47 44 -21 21 -29 25 -29 13z"/>
<path d="M3936 3383 c6 -2 9 -15 6 -28 -3 -19 0 -25 13 -25 11 0 15 5 11 15
-3 8 1 21 8 28 12 12 9 14 -17 14 -18 0 -27 -2 -21 -4z"/>
<path d="M3787 2983 c-4 -3 -7 -11 -7 -17 0 -6 5 -5 12 2 6 6 9 14 7 17 -3 3
-9 2 -12 -2z"/>
<path d="M3760 2939 c0 -5 5 -7 10 -4 6 3 10 8 10 11 0 2 -4 4 -10 4 -5 0 -10
-5 -10 -11z"/>
<path d="M2385 3910 c22 -14 25 -20 12 -20 -15 0 -15 -3 -5 -20 9 -15 22 -20
43 -18 17 1 36 -1 43 -6 23 -14 12 15 -15 41 -30 27 -64 43 -91 43 -12 0 -7
-7 13 -20z"/>
<path d="M1987 3874 c-3 -4 -21 -10 -39 -15 -32 -8 -32 -9 6 -4 35 4 77 25 50
25 -6 0 -13 -3 -17 -6z"/>
<path d="M1982 3820 c-32 -30 -27 -38 6 -9 15 13 29 25 31 27 2 1 0 2 -5 2 -6
0 -20 -9 -32 -20z"/>
<path d="M2470 3811 c0 -5 5 -13 10 -16 6 -3 10 -2 10 4 0 5 -4 13 -10 16 -5
3 -10 2 -10 -4z"/>
<path d="M2517 3797 c-3 -8 -2 -19 3 -26 5 -9 9 -7 13 8 6 23 -8 39 -16 18z"/>
<path d="M2540 3681 c15 -30 30 -35 17 -6 -7 14 -16 25 -20 25 -4 0 -3 -9 3
-19z"/>
<path d="M2134 3629 c-3 -6 -14 -9 -24 -6 -13 3 -17 0 -13 -9 3 -8 9 -14 13
-14 9 0 40 28 40 36 0 8 -9 4 -16 -7z"/>
<path d="M2011 3597 c12 -26 12 -26 43 -10 43 22 44 24 8 17 -20 -4 -38 -2
-48 6 -13 12 -14 10 -3 -13z"/>
<path d="M1940 3581 c11 -21 10 -23 -4 -18 -10 4 -16 1 -16 -8 0 -20 13 -19
53 3 19 10 32 23 29 30 -2 8 -8 8 -19 -4 -14 -13 -17 -13 -36 3 -20 18 -20 18
-7 -6z"/>
<path d="M1877 3564 c-9 -10 -9 -44 1 -44 4 0 13 4 19 8 10 7 10 12 0 26 -7 9
-16 14 -20 10z"/>
<path d="M2015 3550 c-16 -7 -17 -9 -3 -9 9 -1 20 4 23 9 7 11 7 11 -20 0z"/>
<path d="M1955 3530 c-8 -13 5 -13 25 0 13 8 13 10 -2 10 -9 0 -20 -4 -23 -10z"/>
<path d="M1830 3520 c0 -5 5 -10 11 -10 5 0 7 5 4 10 -3 6 -8 10 -11 10 -2 0
-4 -4 -4 -10z"/>
<path d="M1966 3500 c-15 -5 -16 -9 -7 -14 7 -5 18 -3 24 3 14 14 6 20 -17 11z"/>
<path d="M2018 3503 c7 -3 16 -2 19 1 4 3 -2 6 -13 5 -11 0 -14 -3 -6 -6z"/>
<path d="M3380 3920 c0 -5 4 -10 9 -10 6 0 13 5 16 10 3 6 -1 10 -9 10 -9 0
-16 -4 -16 -10z"/>
<path d="M4235 3840 c3 -5 8 -10 11 -10 2 0 4 5 4 10 0 6 -5 10 -11 10 -5 0
-7 -4 -4 -10z"/>
<path d="M5746 3141 c-3 -5 5 -8 19 -8 14 0 22 3 19 8 -3 5 -11 9 -19 9 -8 0
-16 -4 -19 -9z"/>
<path d="M3604 2525 c-3 -8 -3 -19 1 -25 10 -17 32 -12 38 9 6 23 -31 38 -39
16z"/>
<path d="M6110 2250 c0 -5 7 -7 15 -4 8 4 15 8 15 10 0 2 -7 4 -15 4 -8 0 -15
-4 -15 -10z"/>
<path d="M3735 1120 c-3 -5 -1 -10 4 -10 6 0 11 5 11 10 0 6 -2 10 -4 10 -3 0
-8 -4 -11 -10z"/>
<path d="M3770 1090 c-12 -7 -10 -9 7 -7 12 0 19 5 17 9 -6 10 -6 10 -24 -2z"/>
<path d="M3420 720 c0 -5 5 -10 10 -10 6 0 10 5 10 10 0 6 -4 10 -10 10 -5 0
-10 -4 -10 -10z"/>
<path d="M2038 6394 c-9 -19 -9 -27 0 -32 13 -9 36 -138 26 -153 -3 -6 -3 -22
1 -37 l7 -27 12 23 c16 29 4 161 -15 173 -11 6 -11 11 -1 21 6 6 12 22 12 35
0 31 -27 30 -42 -3z"/>
<path d="M3491 6404 c0 -11 3 -14 6 -6 3 7 2 16 -1 19 -3 4 -6 -2 -5 -13z"/>
<path d="M1730 6385 c7 -8 16 -12 21 -9 5 3 9 0 9 -5 0 -6 5 -11 11 -11 5 0 7
5 4 10 -3 6 0 10 7 11 18 1 -23 17 -46 18 -15 1 -16 -2 -6 -14z"/>
<path d="M2142 6364 c7 -15 14 -21 16 -15 5 16 -5 41 -17 41 -7 0 -6 -10 1
-26z"/>
<path d="M2202 6308 c4 -46 12 -105 17 -133 18 -92 34 -298 27 -356 -3 -32 -2
-60 3 -63 9 -6 21 88 21 163 0 26 4 51 9 57 11 11 -21 262 -45 352 -24 93 -42
82 -32 -20z m25 -10 c-3 -8 -6 -5 -6 6 -1 11 2 17 5 13 3 -3 4 -12 1 -19z"/>
<path d="M1530 6361 c0 -5 -7 -17 -16 -25 -14 -15 -14 -16 4 -16 11 0 23 -6
25 -12 3 -8 6 -7 6 4 1 9 10 20 22 23 19 7 20 7 2 21 -21 16 -43 18 -43 5z"/>
<path d="M1860 6354 c0 -26 34 -191 52 -253 17 -55 44 -71 33 -20 -4 19 -10
48 -15 64 -5 17 -18 68 -31 115 -25 96 -38 128 -39 94z"/>
<path d="M1456 6342 c-3 -5 4 -16 15 -25 19 -17 24 -11 13 17 -7 17 -20 21
-28 8z"/>
<path d="M1582 6315 c-11 -12 -10 -15 3 -15 8 0 15 7 15 15 0 18 -2 18 -18 0z"/>
<path d="M1055 6310 c-3 -5 -1 -10 4 -10 6 0 11 5 11 10 0 6 -2 10 -4 10 -3 0
-8 -4 -11 -10z"/>
<path d="M1263 6300 c-13 -5 -23 -7 -23 -3 0 3 -7 0 -15 -7 -8 -7 -15 -17 -15
-23 0 -6 7 -2 16 9 15 18 15 18 10 0 -4 -12 1 -26 15 -39 13 -13 20 -15 17 -6
-6 18 20 38 52 39 18 0 21 3 11 9 -7 5 -10 14 -7 20 9 13 -29 14 -61 1z"/>
<path d="M1028 6265 c-6 -44 -3 -54 12 -39 5 5 5 25 1 44 l-8 35 -5 -40z"/>
<path d="M1075 6281 c4 -8 2 -17 -6 -22 -9 -6 -10 -9 -2 -9 19 0 27 21 13 33
-10 9 -11 9 -5 -2z"/>
<path d="M4840 6276 c0 -16 45 -30 62 -20 6 4 -4 13 -22 20 -40 17 -40 17 -40
0z"/>
<path d="M981 6264 c0 -11 3 -14 6 -6 3 7 2 16 -1 19 -3 4 -6 -2 -5 -13z"/>
<path d="M950 6251 c15 -29 30 -71 25 -71 -2 0 -15 18 -28 40 l-24 40 -12 -26
c-12 -27 -7 -64 10 -64 5 0 1 -8 -8 -18 -10 -11 -22 -17 -27 -14 -5 3 -7 -2
-3 -11 3 -9 0 -18 -9 -21 -18 -7 -19 -26 -1 -26 7 0 19 -17 26 -37 8 -21 16
-44 19 -52 3 -9 1 -12 -5 -8 -14 9 12 -93 25 -102 5 -3 14 -16 21 -28 6 -13
18 -23 25 -23 14 0 31 -29 22 -37 -8 -8 -27 8 -47 41 -10 17 -19 28 -19 24 0
-14 200 -420 251 -511 92 -163 258 -409 271 -401 7 4 8 3 4 -5 -4 -6 12 -36
37 -69 52 -66 72 -102 58 -102 -29 0 -150 141 -260 303 -30 43 -56 76 -59 73
-7 -7 -32 14 -32 26 0 6 8 4 17 -3 21 -17 25 -24 -78 138 -42 67 -90 144 -105
172 -16 28 -32 51 -36 51 -47 0 154 -341 329 -560 78 -98 288 -314 279 -287
-4 13 1 17 22 18 15 0 21 3 14 6 -10 4 -10 8 -2 18 9 11 7 14 -14 12 -14 -1
-25 2 -25 6 0 4 -11 22 -26 38 -14 17 -23 35 -19 40 3 5 -1 9 -8 9 -15 1 -54
50 -38 50 5 0 13 0 18 0 4 0 7 -6 7 -12 1 -7 6 -12 12 -11 6 1 17 -11 25 -27
7 -17 16 -30 20 -30 5 0 7 -3 5 -8 -2 -8 6 -12 29 -12 10 0 14 6 10 15 -3 8
-1 15 3 15 5 0 11 -5 13 -12 6 -16 50 -21 59 -6 7 10 11 10 21 0 16 -16 59
-15 82 1 26 19 19 61 -48 277 -32 102 -65 212 -73 245 -8 33 -17 70 -20 82 -3
13 -9 21 -13 18 -5 -3 -2 -26 6 -52 21 -69 16 -75 -12 -15 -17 35 -32 52 -44
52 -18 0 -17 -4 6 -72 26 -79 18 -83 -11 -5 -22 59 -36 70 -28 22 4 -23 2 -35
-6 -35 -18 0 -50 37 -57 67 -6 24 -34 76 -34 63 0 -3 7 -27 15 -54 27 -90 9
-58 -45 80 -30 74 -57 137 -61 139 -5 4 58 -167 96 -257 5 -13 2 -18 -9 -18
-9 0 -16 -8 -17 -17 0 -15 -2 -15 -9 2 -4 11 -6 30 -3 41 2 12 0 25 -6 28 -7
4 -8 1 -5 -8 10 -26 -4 -18 -21 12 -15 26 -16 26 -9 2 3 -14 21 -56 40 -93 19
-38 34 -74 34 -80 0 -7 -7 2 -15 18 -11 23 -22 31 -44 31 -28 2 -29 0 -20 -25
l9 -26 -20 25 c-11 14 -20 20 -20 13 0 -6 4 -14 9 -17 12 -8 35 -95 27 -103
-11 -11 -45 28 -81 92 -67 120 -257 500 -265 530 -7 24 -67 175 -121 304 -7
18 -12 21 -23 12 -11 -9 -15 -7 -19 11 -7 24 3 42 10 21 9 -26 23 -12 23 22 0
41 19 46 50 15 l20 -20 0 20 c0 11 -7 20 -16 20 -8 0 -12 5 -9 10 8 13 -24
100 -37 100 -5 0 -4 -9 2 -19z m14 -289 c20 -46 33 -89 29 -95 -4 -7 -10 -2
-14 13 -4 14 -17 50 -29 80 -48 121 -39 123 14 2z m76 -152 c11 -22 18 -40 15
-40 -2 0 -14 18 -25 40 -11 22 -18 40 -15 40 2 0 14 -18 25 -40z m561 -540
c10 0 21 -9 24 -21 15 -46 -21 -37 -49 12 -10 19 -13 28 -5 22 7 -7 21 -13 30
-13z m-56 -116 c8 -20 15 -39 15 -43 -1 -8 -39 61 -40 72 -1 18 11 4 25 -29z
m122 -36 c6 -18 14 -44 18 -58 7 -24 7 -24 -8 -5 -8 11 -13 23 -11 27 3 5 0 8
-5 8 -6 0 -11 9 -11 20 0 11 -5 20 -11 20 -5 0 -7 5 -4 10 11 18 21 11 32 -22z
m-247 -98 c0 -5 -2 -10 -4 -10 -3 0 -8 5 -11 10 -3 6 -1 10 4 10 6 0 11 -4 11
-10z m40 -14 c0 -2 -7 -7 -16 -10 -8 -3 -12 -2 -9 4 6 10 25 14 25 6z m44 -65
c3 -5 -1 -11 -9 -15 -9 -3 -15 0 -15 9 0 16 16 20 24 6z m200 -39 c3 -5 -1 -9
-9 -9 -8 0 -12 4 -9 9 3 4 7 8 9 8 2 0 6 -4 9 -8z m19 -45 c3 -8 -1 -14 -8
-14 -7 0 -11 6 -8 14 3 7 6 13 8 13 2 0 5 -6 8 -13z"/>
<path d="M1598 6240 c2 -17 8 -32 12 -35 5 -3 7 3 5 12 -2 10 -4 26 -4 36 -1
9 -5 17 -9 17 -5 0 -7 -14 -4 -30z"/>
<path d="M1320 6250 c0 -5 4 -10 9 -10 6 0 13 5 16 10 3 6 -1 10 -9 10 -9 0
-16 -4 -16 -10z"/>
<path d="M1370 6249 c2 -45 57 -216 59 -179 1 17 -46 180 -54 188 -3 3 -5 -1
-5 -9z"/>
<path d="M1095 6243 c-20 -5 -65 -41 -65 -52 0 -3 17 -6 37 -6 35 0 37 -2 49
-45 14 -54 52 -141 53 -122 1 7 -3 22 -9 32 -15 29 -24 93 -11 85 6 -3 11 -17
11 -31 0 -13 4 -24 9 -24 6 0 9 -8 9 -17 0 -10 3 -31 7 -47 5 -20 5 -27 -3
-22 -15 9 -3 -27 47 -149 22 -55 41 -115 41 -133 0 -19 6 -35 14 -38 8 -3 12
-12 10 -19 -3 -7 1 -25 9 -40 l14 -27 0 31 c0 17 -5 28 -10 24 -6 -3 -7 -1 -3
6 4 6 15 10 24 9 12 -2 18 6 20 27 l4 30 14 -30 14 -30 -5 30 c-9 49 -27 88
-35 75 -4 -6 -7 1 -7 17 0 15 -28 102 -63 193 -34 91 -69 184 -78 208 -10 28
-25 48 -43 58 -15 7 -29 13 -31 13 -2 -1 -12 -3 -23 -6z m50 -44 c-5 -37 -15
-52 -15 -21 0 11 -3 27 -6 36 -4 10 -1 16 9 16 12 0 15 -8 12 -31z m172 -384
c12 -26 12 -28 -1 -12 -14 18 -14 18 -18 0 -2 -10 -4 2 -5 27 0 25 2 38 5 30
3 -8 11 -28 19 -45z m-37 -37 c0 -5 -5 -6 -10 -3 -6 4 -8 11 -5 16 4 5 1 9 -4
9 -6 0 -11 10 -11 23 0 20 1 20 15 -7 8 -15 15 -33 15 -38z"/>
<path d="M1190 6234 c0 -14 3 -14 15 -4 8 7 15 14 15 16 0 2 -7 4 -15 4 -8 0
-15 -7 -15 -16z"/>
<path d="M991 6225 c0 -11 4 -29 9 -40 l9 -20 0 20 c0 11 -4 29 -9 40 l-9 20
0 -20z"/>
<path d="M1291 6226 c12 -10 59 -15 59 -6 0 5 -14 10 -32 10 -17 0 -29 -2 -27
-4z"/>
<path d="M1063 6165 c0 -8 4 -15 9 -15 4 0 8 7 8 15 0 8 -4 15 -8 15 -5 0 -9
-7 -9 -15z"/>
<path d="M1025 6130 c-3 -6 1 -7 9 -4 18 7 21 14 7 14 -6 0 -13 -4 -16 -10z"/>
<path d="M1050 6093 c0 -5 7 -18 15 -29 13 -18 14 -18 8 4 -5 22 -23 41 -23
25z"/>
<path d="M2085 6079 c14 -46 25 -56 23 -20 -2 19 -9 36 -17 39 -10 3 -11 -2
-6 -19z"/>
<path d="M972 6080 c3 -8 13 -39 23 -68 9 -29 19 -51 22 -48 7 6 -27 107 -40
121 -7 6 -8 5 -5 -5z"/>
<path d="M1386 6011 c3 -30 9 -62 14 -70 15 -26 11 38 -6 84 l-14 40 6 -54z"/>
<path d="M1136 5995 c3 -11 10 -38 16 -60 5 -22 11 -48 14 -59 5 -16 2 -18
-20 -14 -14 3 -26 3 -26 1 0 -8 33 -68 40 -73 4 -3 12 -15 19 -27 8 -16 21
-23 39 -23 26 1 27 1 5 13 -17 9 -19 16 -12 30 6 9 7 22 4 27 -4 6 -9 22 -11
37 -3 14 -21 58 -40 97 -19 39 -31 62 -28 51z"/>
<path d="M1020 5941 c0 -5 5 -13 10 -16 6 -3 10 -2 10 4 0 5 -4 13 -10 16 -5
3 -10 2 -10 -4z"/>
<path d="M1952 5918 c3 -37 38 -55 38 -20 0 31 -11 52 -27 52 -10 0 -13 -9
-11 -32z"/>
<path d="M1647 5910 c-6 -26 17 -115 31 -114 6 1 21 2 32 3 25 1 27 44 6 95
-11 27 -20 34 -40 32 -14 0 -27 -8 -29 -16z m50 -96 c-3 -3 -12 -4 -19 -1 -8
3 -5 6 6 6 11 1 17 -2 13 -5z"/>
<path d="M2111 5855 c-1 -46 27 -306 33 -313 17 -16 25 30 20 113 -6 109 -12
138 -24 130 -5 -3 -12 11 -15 32 -9 49 -13 63 -14 38z"/>
<path d="M1890 5831 c0 -17 4 -31 9 -31 5 0 9 11 9 25 0 14 -4 28 -9 31 -5 3
-9 -9 -9 -25z"/>
<path d="M1541 5774 c6 -21 13 -41 16 -44 9 -9 -9 65 -18 74 -4 5 -3 -8 2 -30z"/>
<path d="M1460 5756 c0 -8 4 -17 9 -20 5 -4 7 3 4 14 -6 23 -13 26 -13 6z"/>
<path d="M2323 5670 c0 -41 2 -58 4 -37 2 20 2 54 0 75 -2 20 -4 3 -4 -38z"/>
<path d="M1890 5720 c0 -5 5 -10 11 -10 5 0 7 5 4 10 -3 6 -8 10 -11 10 -2 0
-4 -4 -4 -10z"/>
<path d="M1395 5686 c3 -16 12 -43 20 -60 l14 -31 -6 30 c-3 17 -12 44 -20 60
l-14 30 6 -29z"/>
<path d="M1190 5681 c8 -6 11 -11 6 -11 -5 0 -2 -8 6 -17 9 -10 23 -31 31 -48
25 -46 19 -16 -6 34 -12 25 -29 47 -37 49 -13 3 -13 2 0 -7z"/>
<path d="M1471 5685 c0 -6 7 -26 15 -45 l14 -35 -6 35 c-5 31 -25 69 -23 45z"/>
<path d="M2850 5625 c-11 -13 -10 -14 4 -9 9 3 16 10 16 15 0 13 -6 11 -20 -6z"/>
<path d="M1781 5605 c0 -16 4 -48 9 -70 6 -28 5 -44 -3 -54 -10 -12 -9 -13 2
-6 11 6 13 4 8 -9 -4 -10 -7 -22 -7 -28 0 -25 -50 52 -51 79 0 10 -3 13 -5 6
-3 -7 4 -45 14 -85 11 -40 23 -94 27 -120 4 -27 11 -48 15 -48 4 0 18 -36 30
-80 22 -76 34 -99 47 -87 19 20 -11 263 -47 381 -12 37 -25 86 -30 109 -7 36
-8 37 -9 12z"/>
<path d="M1590 5606 c0 -8 4 -17 9 -20 5 -4 7 3 4 14 -6 23 -13 26 -13 6z"/>
<path d="M1720 5575 c0 -5 5 -17 10 -25 5 -8 10 -10 10 -5 0 6 -5 17 -10 25
-5 8 -10 11 -10 5z"/>
<path d="M1250 5565 c0 -5 5 -17 10 -25 5 -8 10 -10 10 -5 0 6 -5 17 -10 25
-5 8 -10 11 -10 5z"/>
<path d="M1863 5553 c-15 -5 -17 -45 -4 -58 5 -6 11 -23 13 -39 2 -16 8 -31
15 -33 9 -3 11 9 6 49 -8 67 -15 86 -30 81z"/>
<path d="M1910 5519 c0 -23 5 -27 35 -31 33 -4 36 -2 33 21 -4 31 -24 39 -33
12 -3 -12 -11 -21 -16 -21 -6 0 -8 4 -5 8 2 4 1 14 -5 22 -6 11 -9 9 -9 -11z"/>
<path d="M1357 5516 c-4 -10 -3 -15 3 -11 6 3 10 1 10 -6 0 -7 3 -10 6 -6 3 3
2 13 -4 22 -8 16 -9 16 -15 1z"/>
<path d="M1281 5490 c6 -16 15 -32 20 -35 4 -3 3 8 -2 25 -6 16 -15 32 -20 35
-4 3 -3 -8 2 -25z"/>
<path d="M1381 5475 c0 -5 6 -21 14 -35 8 -14 14 -20 14 -15 0 6 -6 21 -14 35
-8 14 -14 21 -14 15z"/>
<path d="M4738 5473 c7 -3 16 -2 19 1 4 3 -2 6 -13 5 -11 0 -14 -3 -6 -6z"/>
<path d="M2511 5458 c-1 -16 -12 -18 -76 -18 -41 0 -75 -3 -75 -7 0 -12 140
-7 152 5 5 5 8 16 5 24 -4 9 -6 7 -6 -4z"/>
<path d="M4670 5430 c0 -5 5 -10 10 -10 6 0 10 5 10 10 0 6 -4 10 -10 10 -5 0
-10 -4 -10 -10z"/>
<path d="M1983 5360 c0 -30 2 -43 4 -27 2 15 2 39 0 55 -2 15 -4 2 -4 -28z"/>
<path d="M1890 5393 c0 -5 5 -15 10 -23 8 -12 10 -11 10 8 0 12 -4 22 -10 22
-5 0 -10 -3 -10 -7z"/>
<path d="M1942 5325 c0 -16 2 -22 5 -12 2 9 2 23 0 30 -3 6 -5 -1 -5 -18z"/>
<path d="M1361 5300 c14 -31 19 -36 19 -24 0 6 -7 19 -16 30 -14 18 -14 18 -3
-6z"/>
<path d="M1730 5269 c11 -38 43 -74 58 -65 14 9 2 57 -17 63 -9 3 -24 13 -33
21 -16 13 -17 12 -8 -19z"/>
<path d="M1979 5268 c-1 -13 -1 -26 0 -30 0 -5 -3 -8 -9 -8 -5 0 -10 8 -10 17
0 9 -2 14 -5 12 -2 -3 2 -77 10 -165 18 -194 18 -184 1 -184 -14 0 -35 47 -37
84 -1 17 -2 18 -6 3 -2 -9 3 -40 12 -67 14 -41 21 -50 40 -50 13 0 29 -8 34
-17 8 -13 10 14 11 98 0 137 -9 241 -21 233 -13 -8 -11 13 4 37 10 17 9 23 -1
26 -6 3 -10 9 -7 13 3 5 1 11 -5 15 -6 3 -11 -4 -11 -17z"/>
<path d="M1916 5225 c4 -8 8 -15 10 -15 2 0 4 7 4 15 0 8 -4 15 -10 15 -5 0
-7 -7 -4 -15z"/>
<path d="M1764 5167 c10 -42 24 -70 46 -97 l22 -25 -6 25 c-3 14 -8 44 -12 68
-4 23 -9 40 -12 38 -2 -3 -14 0 -25 5 -18 10 -19 9 -13 -14z"/>
<path d="M1912 5045 c0 -16 2 -22 5 -12 2 9 2 23 0 30 -3 6 -5 -1 -5 -18z"/>
<path d="M5480 4975 c0 -2 14 -11 30 -20 17 -9 30 -12 30 -7 0 5 -11 14 -25
20 -28 13 -35 14 -35 7z"/>
<path d="M5466 4951 c-3 -5 1 -11 9 -14 9 -4 12 -1 8 9 -6 16 -10 17 -17 5z"/>
<path d="M5350 4906 c0 -7 40 -14 44 -7 3 4 -6 8 -20 9 -13 1 -24 0 -24 -2z"/>
<path d="M5440 4901 c-8 -6 -18 -7 -22 -5 -4 3 -5 -3 -1 -12 4 -11 8 -13 11
-6 2 7 7 10 12 7 4 -3 10 2 14 10 6 17 6 18 -14 6z"/>
<path d="M5560 4906 c0 -2 7 -7 16 -10 8 -3 12 -2 9 4 -6 10 -25 14 -25 6z"/>
<path d="M5610 4870 c0 -5 5 -10 11 -10 5 0 7 5 4 10 -3 6 -8 10 -11 10 -2 0
-4 -4 -4 -10z"/>
<path d="M5520 4842 c0 -15 28 -23 36 -9 4 7 4 9 -1 5 -4 -4 -14 -3 -22 3 -8
7 -13 8 -13 1z"/>
<path d="M5347 4833 c-10 -9 -9 -23 1 -23 5 0 9 7 9 15 0 17 -1 18 -10 8z"/>
<path d="M5460 4823 c0 -4 5 -15 10 -23 8 -13 10 -13 10 2 0 9 -4 20 -10 23
-5 3 -10 3 -10 -2z"/>
<path d="M5557 4791 c-4 -17 -3 -21 5 -13 5 5 8 16 6 23 -3 8 -7 3 -11 -10z"/>
<path d="M5663 4796 c1 -11 9 -21 17 -23 10 -3 11 -2 4 4 -6 4 -14 15 -17 23
-5 11 -6 9 -4 -4z"/>
<path d="M5423 4785 c0 -8 4 -12 9 -9 5 3 6 10 3 15 -9 13 -12 11 -12 -6z"/>
<path d="M5503 4779 c7 -11 13 -15 15 -9 2 6 9 7 14 4 6 -4 8 -2 5 3 -4 6 -15
13 -26 16 -17 4 -18 2 -8 -14z"/>
<path d="M5985 4770 c-8 -14 3 -30 21 -30 8 0 14 9 14 20 0 21 -24 28 -35 10z"/>
<path d="M5468 4744 c6 -33 20 -40 18 -9 0 14 -6 27 -12 29 -7 3 -9 -5 -6 -20z"/>
<path d="M5545 4750 c-3 -5 1 -10 9 -10 9 0 16 5 16 10 0 6 -4 10 -9 10 -6 0
-13 -4 -16 -10z"/>
<path d="M5923 4744 c-8 -21 13 -42 28 -27 13 13 5 43 -11 43 -6 0 -13 -7 -17
-16z"/>
<path d="M5508 4720 c-4 -24 -1 -30 10 -25 9 3 12 0 9 -8 -4 -10 2 -13 19 -9
17 3 24 11 24 28 0 13 -5 24 -11 24 -5 0 -8 -4 -4 -9 3 -5 1 -12 -5 -16 -5 -3
-10 1 -10 9 0 9 -5 16 -11 16 -5 0 -7 5 -4 10 3 6 2 10 -3 10 -5 0 -12 -14
-14 -30z"/>
<path d="M6057 4743 c-4 -3 -7 -12 -7 -20 0 -17 26 -17 33 1 8 21 -11 35 -26
19z"/>
<path d="M6203 4718 c-25 -27 -13 -45 26 -40 13 2 28 -1 34 -7 6 -6 16 -11 22
-11 5 0 4 4 -4 9 -11 7 -12 13 -4 23 8 9 7 16 -2 25 -10 9 -14 8 -18 -8 -3
-10 -13 -19 -22 -19 -13 0 -16 6 -13 25 6 30 6 30 -19 3z"/>
<path d="M5580 4720 c0 -6 7 -10 15 -10 8 0 15 2 15 4 0 2 -7 6 -15 10 -8 3
-15 1 -15 -4z"/>
<path d="M5970 4695 c-7 -8 -10 -21 -6 -30 4 -12 10 -11 31 9 14 13 25 26 25
30 0 12 -38 6 -50 -9z"/>
<path d="M5901 4686 c-8 -10 -8 -16 3 -25 10 -9 16 -8 26 3 12 15 6 36 -9 36
-5 0 -14 -6 -20 -14z"/>
<path d="M6072 4673 c2 -10 10 -18 18 -18 22 0 18 29 -3 33 -14 3 -18 -1 -15
-15z"/>
<path d="M6245 4639 c-4 -6 -3 -15 3 -21 6 -6 11 -4 15 6 7 18 -9 31 -18 15z"/>
<path d="M5923 4624 c-8 -21 13 -42 28 -27 13 13 5 43 -11 43 -6 0 -13 -7 -17
-16z"/>
<path d="M6044 4619 c-9 -15 11 -33 30 -26 9 4 13 13 10 22 -7 17 -30 20 -40
4z"/>
<path d="M2070 4601 c0 -9 -54 -13 -220 -15 -84 -1 -98 -4 -117 -23 -13 -13
-30 -23 -38 -23 -8 0 -25 -5 -38 -12 -12 -6 -28 -14 -36 -17 -36 -17 -3 -26
92 -25 82 1 113 6 157 24 43 18 73 23 140 23 47 -1 80 1 73 4 -7 3 -10 17 -6
39 3 19 3 34 -1 34 -3 0 -6 -4 -6 -9z"/>
<path d="M5983 4594 c-7 -18 17 -38 31 -24 11 11 1 40 -14 40 -6 0 -13 -7 -17
-16z"/>
<path d="M6098 4343 c7 -3 16 -2 19 1 4 3 -2 6 -13 5 -11 0 -14 -3 -6 -6z"/>
<path d="M1520 4305 c0 -19 9 -19 34 0 19 14 19 15 -7 15 -17 0 -27 -5 -27
-15z"/>
<path d="M6000 4305 c0 -7 -6 -18 -13 -22 -8 -4 -17 -17 -21 -28 -4 -14 1 -11
18 10 23 27 33 55 21 55 -3 0 -5 -7 -5 -15z"/>
<path d="M1985 4238 c-27 -11 -78 -33 -112 -49 -34 -16 -68 -29 -77 -29 -8 0
-18 -5 -22 -11 -10 -16 41 -7 161 30 70 22 134 34 215 40 90 6 101 8 50 10
-36 0 -78 8 -94 16 -36 19 -59 18 -121 -7z"/>
<path d="M5935 4229 c-4 -6 -5 -12 -2 -15 2 -3 7 2 10 11 7 17 1 20 -8 4z"/>
<path d="M1585 4120 c10 -11 20 -20 22 -20 2 0 -2 9 -9 20 -7 11 -17 20 -22
20 -5 0 -1 -9 9 -20z"/>
<path d="M5910 4010 c0 -5 5 -10 11 -10 5 0 7 5 4 10 -3 6 -8 10 -11 10 -2 0
-4 -4 -4 -10z"/>
<path d="M5910 3391 c0 -28 5 -53 10 -56 6 -4 10 9 10 31 l0 38 32 -30 31 -29
-32 48 c-18 26 -36 47 -41 47 -6 0 -10 -22 -10 -49z"/>
<path d="M5968 3148 c7 -7 12 -20 12 -29 0 -9 7 -22 15 -29 10 -9 15 -9 15 -1
0 6 -5 11 -11 11 -6 0 -9 6 -6 13 6 16 -11 47 -25 47 -9 0 -9 -3 0 -12z"/>
<path d="M6681 2014 c0 -11 3 -14 6 -6 3 7 2 16 -1 19 -3 4 -6 -2 -5 -13z"/>
<path d="M6672 1950 c0 -14 2 -19 5 -12 2 6 2 18 0 25 -3 6 -5 1 -5 -13z"/>
<path d="M6661 1874 c0 -11 3 -14 6 -6 3 7 2 16 -1 19 -3 4 -6 -2 -5 -13z"/>
<path d="M6250 1858 c0 -3 51 -11 113 -17 61 -6 132 -14 156 -17 25 -3 41 -2
37 4 -3 5 -45 12 -93 16 -48 3 -116 9 -150 12 -35 4 -63 4 -63 2z"/>
<path d="M6652 1815 c0 -16 2 -22 5 -12 2 9 2 23 0 30 -3 6 -5 -1 -5 -18z"/>
<path d="M6631 1694 c0 -11 3 -14 6 -6 3 7 2 16 -1 19 -3 4 -6 -2 -5 -13z"/>
<path d="M6083 1633 c9 -2 25 -2 35 0 9 3 1 5 -18 5 -19 0 -27 -2 -17 -5z"/>
<path d="M6188 1623 c7 -3 16 -2 19 1 4 3 -2 6 -13 5 -11 0 -14 -3 -6 -6z"/>
</g>
</svg>
